# MagicaVoxel @ Ephtracy

# group
g dirt

# material
mtllib dirt.mtl
usemtl palette

# normals
vn -1 0 0
vn 1 0 0
vn 0 0 1
vn 0 0 -1
vn 0 -1 0
vn 0 1 0

# texcoords
vt 0.982422 0.5
vt 0.986328 0.5
vt 0.990234 0.5

# verts
v -8 0 -0.5
v -8 0 -2.5
v -8 2 -0.5
v -8 2 -2.5
v -7 0 5.5
v -7 0 4.5
v -7 0 0.5
v -7 0 -0.5
v -7 0 -2.5
v -7 0 -5.5
v -7 1 5.5
v -7 1 4.5
v -7 1 0.5
v -7 1 -0.5
v -7 2 -1.5
v -7 2 -2.5
v -7 4 -1.5
v -7 4 -5.5
v -6 0 6.5
v -6 0 5.5
v -6 0 4.5
v -6 0 3.5
v -6 0 -5.5
v -6 0 -6.5
v -6 1 5.5
v -6 1 4.5
v -6 1 -5.5
v -6 1 -6.5
v -6 2 6.5
v -6 2 3.5
v -5 0 -6.5
v -5 0 -7.5
v -5 1 -5.5
v -5 1 -6.5
v -5 2 -5.5
v -5 2 -7.5
v -4 0 7.5
v -4 0 6.5
v -4 0 -0.5
v -4 0 -1.5
v -4 1 7.5
v -4 1 6.5
v -4 2 -0.5
v -4 2 -1.5
v 2 0 3.5
v 2 0 -0.5
v 2 1 3.5
v 2 1 2.5
v 2 2 2.5
v 2 2 -0.5
v 3 0 -0.5
v 3 0 -1.5
v 3 1 -0.5
v 3 1 -1.5
v 6 0 -0.5
v 6 0 -1.5
v 6 1 -0.5
v 6 1 -1.5
v -6 0 0.5
v -6 0 -0.5
v -6 0 -1.5
v -6 1 0.5
v -6 1 -0.5
v -6 2 -0.5
v -6 2 -1.5
v -3 0 7.5
v -3 0 6.5
v -3 0 4.5
v -3 0 -5.5
v -3 0 -7.5
v -3 1 7.5
v -3 1 6.5
v -3 1 4.5
v -3 1 3.5
v -3 2 6.5
v -3 2 3.5
v -3 2 -5.5
v -3 2 -7.5
v -2 0 4.5
v -2 0 3.5
v -2 0 -2.5
v -2 0 -5.5
v -2 1 4.5
v -2 1 3.5
v -2 2 -1.5
v -2 2 -2.5
v -2 4 -1.5
v -2 4 -5.5
v -1 0 -0.5
v -1 0 -2.5
v -1 2 -0.5
v -1 2 -2.5
v 3 0 3.5
v 3 0 2.5
v 3 1 3.5
v 3 1 2.5
v 4 0 -0.5
v 4 0 -1.5
v 4 1 -0.5
v 4 1 -1.5
v 6 0 2.5
v 6 0 1.5
v 6 1 1.5
v 6 1 0.5
v 6 2 2.5
v 6 2 0.5
v 7 0 1.5
v 7 0 0.5
v 7 1 1.5
v 7 1 0.5
v 7 1 -0.5
v 7 2 0.5
v 7 2 -0.5
v 8 0 0.5
v 8 0 -1.5
v 8 1 0.5
v 8 1 -1.5
v -4 0 7.5
v -4 1 7.5
v -3 0 7.5
v -3 1 7.5
v -6 0 6.5
v -6 2 6.5
v -4 0 6.5
v -4 1 6.5
v -3 1 6.5
v -3 2 6.5
v -7 0 5.5
v -7 1 5.5
v -6 0 5.5
v -6 1 5.5
v -3 0 4.5
v -3 1 4.5
v -2 0 4.5
v -2 1 4.5
v 2 0 3.5
v 2 1 3.5
v 3 0 3.5
v 3 1 3.5
v 2 1 2.5
v 2 2 2.5
v 3 0 2.5
v 3 1 2.5
v 6 0 2.5
v 6 2 2.5
v 6 0 1.5
v 6 1 1.5
v 7 0 1.5
v 7 1 1.5
v -7 0 0.5
v -7 1 0.5
v -6 0 0.5
v -6 1 0.5
v 6 1 0.5
v 6 2 0.5
v 7 0 0.5
v 7 1 0.5
v 7 2 0.5
v 8 0 0.5
v 8 1 0.5
v -8 0 -0.5
v -8 2 -0.5
v -7 0 -0.5
v -7 1 -0.5
v -6 1 -0.5
v -6 2 -0.5
v -4 0 -0.5
v -4 2 -0.5
v -1 0 -0.5
v -1 2 -0.5
v -7 2 -1.5
v -7 4 -1.5
v -6 0 -1.5
v -6 2 -1.5
v -4 0 -1.5
v -4 2 -1.5
v -2 2 -1.5
v -2 4 -1.5
v -7 0 4.5
v -7 1 4.5
v -6 0 4.5
v -6 1 4.5
v -6 0 3.5
v -6 2 3.5
v -3 1 3.5
v -3 2 3.5
v -2 0 3.5
v -2 1 3.5
v 2 0 -0.5
v 2 2 -0.5
v 3 0 -0.5
v 3 1 -0.5
v 4 0 -0.5
v 4 1 -0.5
v 6 0 -0.5
v 6 1 -0.5
v 7 1 -0.5
v 7 2 -0.5
v 3 0 -1.5
v 3 1 -1.5
v 4 0 -1.5
v 4 1 -1.5
v 6 0 -1.5
v 6 1 -1.5
v 8 0 -1.5
v 8 1 -1.5
v -8 0 -2.5
v -8 2 -2.5
v -7 0 -2.5
v -7 2 -2.5
v -2 0 -2.5
v -2 2 -2.5
v -1 0 -2.5
v -1 2 -2.5
v -7 0 -5.5
v -7 4 -5.5
v -6 0 -5.5
v -6 1 -5.5
v -5 1 -5.5
v -5 2 -5.5
v -3 0 -5.5
v -3 2 -5.5
v -2 0 -5.5
v -2 4 -5.5
v -6 0 -6.5
v -6 1 -6.5
v -5 0 -6.5
v -5 1 -6.5
v -5 0 -7.5
v -5 2 -7.5
v -3 0 -7.5
v -3 2 -7.5
v -4 0 7.5
v -3 0 7.5
v -6 0 6.5
v -4 0 6.5
v -3 0 6.5
v -7 0 5.5
v -6 0 5.5
v -7 0 4.5
v -6 0 4.5
v -3 0 4.5
v -2 0 4.5
v -6 0 3.5
v -2 0 3.5
v 2 0 3.5
v 3 0 3.5
v 3 0 2.5
v 6 0 2.5
v 6 0 1.5
v 7 0 1.5
v -7 0 0.5
v -6 0 0.5
v 7 0 0.5
v 8 0 0.5
v -8 0 -0.5
v -7 0 -0.5
v -6 0 -0.5
v -4 0 -0.5
v -1 0 -0.5
v 2 0 -0.5
v 3 0 -0.5
v 4 0 -0.5
v 6 0 -0.5
v -6 0 -1.5
v -4 0 -1.5
v -2 0 -1.5
v 3 0 -1.5
v 4 0 -1.5
v 6 0 -1.5
v 8 0 -1.5
v -8 0 -2.5
v -7 0 -2.5
v -2 0 -2.5
v -1 0 -2.5
v -7 0 -5.5
v -6 0 -5.5
v -4 0 -5.5
v -3 0 -5.5
v -2 0 -5.5
v -6 0 -6.5
v -5 0 -6.5
v -4 0 -6.5
v -5 0 -7.5
v -3 0 -7.5
v -4 1 7.5
v -3 1 7.5
v -4 1 6.5
v -3 1 6.5
v -7 1 5.5
v -6 1 5.5
v -7 1 4.5
v -6 1 4.5
v -3 1 4.5
v -2 1 4.5
v -3 1 3.5
v -2 1 3.5
v 2 1 3.5
v 3 1 3.5
v 2 1 2.5
v 3 1 2.5
v 6 1 1.5
v 7 1 1.5
v -7 1 0.5
v -6 1 0.5
v 6 1 0.5
v 7 1 0.5
v 8 1 0.5
v -7 1 -0.5
v -6 1 -0.5
v 3 1 -0.5
v 4 1 -0.5
v 6 1 -0.5
v 7 1 -0.5
v 3 1 -1.5
v 4 1 -1.5
v 6 1 -1.5
v 8 1 -1.5
v -6 1 -5.5
v -5 1 -5.5
v -6 1 -6.5
v -5 1 -6.5
v -6 2 6.5
v -3 2 6.5
v -6 2 3.5
v -3 2 3.5
v 2 2 2.5
v 6 2 2.5
v 6 2 0.5
v 7 2 0.5
v -8 2 -0.5
v -6 2 -0.5
v -4 2 -0.5
v -1 2 -0.5
v 2 2 -0.5
v 7 2 -0.5
v -7 2 -1.5
v -6 2 -1.5
v -4 2 -1.5
v -2 2 -1.5
v -8 2 -2.5
v -7 2 -2.5
v -2 2 -2.5
v -1 2 -2.5
v -5 2 -5.5
v -3 2 -5.5
v -5 2 -7.5
v -3 2 -7.5
v -7 4 -1.5
v -2 4 -1.5
v -7 4 -5.5
v -2 4 -5.5

# faces
f 3/3/1 2/3/1 1/3/1
f 4/3/1 2/3/1 3/3/1
f 11/2/1 6/2/1 5/2/1
f 12/2/1 6/2/1 11/2/1
f 13/2/1 8/2/1 7/2/1
f 14/2/1 8/2/1 13/2/1
f 16/3/1 10/3/1 9/3/1
f 17/3/1 16/3/1 15/3/1
f 18/3/1 10/3/1 16/3/1
f 18/3/1 16/3/1 17/3/1
f 25/3/1 20/3/1 19/3/1
f 26/3/1 22/3/1 21/3/1
f 27/3/1 24/3/1 23/3/1
f 28/3/1 24/3/1 27/3/1
f 29/3/1 26/3/1 25/3/1
f 29/3/1 25/3/1 19/3/1
f 30/3/1 22/3/1 26/3/1
f 30/3/1 26/3/1 29/3/1
f 34/2/1 32/2/1 31/2/1
f 35/2/1 34/2/1 33/2/1
f 36/2/1 32/2/1 34/2/1
f 36/2/1 34/2/1 35/2/1
f 41/1/1 38/1/1 37/1/1
f 42/1/1 38/1/1 41/1/1
f 43/1/1 40/1/1 39/1/1
f 44/1/1 40/1/1 43/1/1
f 47/3/1 46/3/1 45/3/1
f 48/3/1 46/3/1 47/3/1
f 49/3/1 46/3/1 48/3/1
f 50/3/1 46/3/1 49/3/1
f 53/1/1 52/1/1 51/1/1
f 54/1/1 52/1/1 53/1/1
f 57/2/1 56/2/1 55/2/1
f 58/2/1 56/2/1 57/2/1
f 59/2/2 60/2/2 62/2/2
f 60/3/2 61/3/2 63/3/2
f 62/2/2 60/2/2 63/2/2
f 63/3/2 61/3/2 64/3/2
f 64/3/2 61/3/2 65/3/2
f 66/1/2 67/1/2 71/1/2
f 67/3/2 68/3/2 72/3/2
f 71/1/2 67/1/2 72/1/2
f 72/3/2 68/3/2 73/3/2
f 73/3/2 74/3/2 75/3/2
f 72/3/2 73/3/2 75/3/2
f 75/3/2 74/3/2 76/3/2
f 69/2/2 70/2/2 77/2/2
f 77/2/2 70/2/2 78/2/2
f 79/3/2 80/3/2 83/3/2
f 83/3/2 80/3/2 84/3/2
f 81/3/2 82/3/2 86/3/2
f 85/3/2 86/3/2 87/3/2
f 86/3/2 82/3/2 88/3/2
f 87/3/2 86/3/2 88/3/2
f 89/1/2 90/1/2 91/1/2
f 91/1/2 90/1/2 92/1/2
f 93/3/2 94/3/2 95/3/2
f 95/3/2 94/3/2 96/3/2
f 97/1/2 98/1/2 99/1/2
f 99/1/2 98/1/2 100/1/2
f 101/3/2 102/3/2 103/3/2
f 101/3/2 103/3/2 105/3/2
f 103/3/2 104/3/2 105/3/2
f 105/3/2 104/3/2 106/3/2
f 107/2/2 108/2/2 109/2/2
f 109/2/2 108/2/2 110/2/2
f 110/3/2 111/3/2 112/3/2
f 112/3/2 111/3/2 113/3/2
f 114/2/2 115/2/2 116/2/2
f 116/2/2 115/2/2 117/2/2
f 120/1/3 119/1/3 118/1/3
f 121/1/3 119/1/3 120/1/3
f 124/3/3 123/3/3 122/3/3
f 125/3/3 123/3/3 124/3/3
f 126/3/3 123/3/3 125/3/3
f 127/3/3 123/3/3 126/3/3
f 130/2/3 129/2/3 128/2/3
f 131/2/3 129/2/3 130/2/3
f 134/3/3 133/3/3 132/3/3
f 135/3/3 133/3/3 134/3/3
f 138/3/3 137/3/3 136/3/3
f 139/3/3 137/3/3 138/3/3
f 143/3/3 141/3/3 140/3/3
f 144/3/3 143/3/3 142/3/3
f 145/3/3 141/3/3 143/3/3
f 145/3/3 143/3/3 144/3/3
f 148/2/3 147/2/3 146/2/3
f 149/2/3 147/2/3 148/2/3
f 152/2/3 151/2/3 150/2/3
f 153/2/3 151/2/3 152/2/3
f 157/3/3 155/3/3 154/3/3
f 158/3/3 155/3/3 157/3/3
f 159/2/3 157/2/3 156/2/3
f 160/2/3 157/2/3 159/2/3
f 163/3/3 162/3/3 161/3/3
f 164/3/3 162/3/3 163/3/3
f 165/3/3 162/3/3 164/3/3
f 166/3/3 162/3/3 165/3/3
f 169/1/3 168/1/3 167/1/3
f 170/1/3 168/1/3 169/1/3
f 174/3/3 172/3/3 171/3/3
f 175/3/3 174/3/3 173/3/3
f 176/3/3 172/3/3 174/3/3
f 176/3/3 174/3/3 175/3/3
f 177/3/3 172/3/3 176/3/3
f 178/3/3 172/3/3 177/3/3
f 179/2/4 180/2/4 181/2/4
f 181/2/4 180/2/4 182/2/4
f 183/3/4 184/3/4 185/3/4
f 185/3/4 184/3/4 186/3/4
f 183/3/4 185/3/4 187/3/4
f 187/3/4 185/3/4 188/3/4
f 189/3/4 190/3/4 191/3/4
f 191/3/4 190/3/4 192/3/4
f 192/3/4 190/3/4 194/3/4
f 193/3/4 194/3/4 195/3/4
f 194/3/4 190/3/4 196/3/4
f 195/3/4 194/3/4 196/3/4
f 196/3/4 190/3/4 197/3/4
f 197/3/4 190/3/4 198/3/4
f 199/1/4 200/1/4 201/1/4
f 201/1/4 200/1/4 202/1/4
f 203/2/4 204/2/4 205/2/4
f 205/2/4 204/2/4 206/2/4
f 207/3/4 208/3/4 209/3/4
f 209/3/4 208/3/4 210/3/4
f 211/1/4 212/1/4 213/1/4
f 213/1/4 212/1/4 214/1/4
f 215/3/4 216/3/4 217/3/4
f 217/3/4 216/3/4 218/3/4
f 218/3/4 216/3/4 219/3/4
f 219/3/4 216/3/4 220/3/4
f 220/3/4 216/3/4 222/3/4
f 221/3/4 222/3/4 223/3/4
f 222/3/4 216/3/4 224/3/4
f 223/3/4 222/3/4 224/3/4
f 225/3/4 226/3/4 227/3/4
f 227/3/4 226/3/4 228/3/4
f 229/2/4 230/2/4 231/2/4
f 231/2/4 230/2/4 232/2/4
f 236/1/5 234/1/5 233/1/5
f 237/1/5 234/1/5 236/1/5
f 239/3/5 236/3/5 235/3/5
f 239/3/5 237/3/5 236/3/5
f 240/2/5 239/2/5 238/2/5
f 241/3/5 237/3/5 239/3/5
f 241/2/5 239/2/5 240/2/5
f 242/3/5 237/3/5 241/3/5
f 244/3/5 242/3/5 241/3/5
f 244/3/5 243/3/5 242/3/5
f 245/3/5 243/3/5 244/3/5
f 248/3/5 247/3/5 246/3/5
f 250/3/5 249/3/5 248/3/5
f 254/2/5 251/2/5 250/2/5
f 257/2/5 253/2/5 252/2/5
f 258/2/5 253/2/5 257/2/5
f 261/3/5 248/3/5 246/3/5
f 261/3/5 250/3/5 248/3/5
f 262/3/5 250/3/5 261/3/5
f 263/3/5 250/3/5 262/3/5
f 264/2/5 255/2/5 254/2/5
f 264/3/5 250/3/5 263/3/5
f 264/2/5 254/2/5 250/2/5
f 265/3/5 258/3/5 257/3/5
f 265/3/5 257/3/5 256/3/5
f 266/1/5 260/1/5 259/1/5
f 267/1/5 260/1/5 266/1/5
f 268/1/5 263/1/5 262/1/5
f 269/1/5 263/1/5 268/1/5
f 270/2/5 255/2/5 264/2/5
f 271/2/5 255/2/5 270/2/5
f 272/3/5 265/3/5 256/3/5
f 272/3/5 266/3/5 265/3/5
f 272/3/5 267/3/5 266/3/5
f 273/3/5 267/3/5 272/3/5
f 274/1/5 260/1/5 267/1/5
f 274/3/5 267/3/5 273/3/5
f 275/1/5 260/1/5 274/1/5
f 276/3/5 274/3/5 273/3/5
f 277/3/5 274/3/5 276/3/5
f 278/3/5 274/3/5 277/3/5
f 279/3/5 274/3/5 278/3/5
f 280/3/5 274/3/5 279/3/5
f 281/3/5 278/3/5 277/3/5
f 282/3/5 278/3/5 281/3/5
f 283/2/5 279/2/5 278/2/5
f 283/3/5 278/3/5 282/3/5
f 284/2/5 283/2/5 282/2/5
f 285/2/5 279/2/5 283/2/5
f 285/2/5 283/2/5 284/2/5
f 286/1/6 287/1/6 288/1/6
f 288/1/6 287/1/6 289/1/6
f 290/2/6 291/2/6 292/2/6
f 292/2/6 291/2/6 293/2/6
f 294/3/6 295/3/6 296/3/6
f 296/3/6 295/3/6 297/3/6
f 298/3/6 299/3/6 300/3/6
f 300/3/6 299/3/6 301/3/6
f 302/2/6 303/2/6 306/2/6
f 306/2/6 303/2/6 307/2/6
f 304/2/6 305/2/6 309/2/6
f 309/2/6 305/2/6 310/2/6
f 307/2/6 308/2/6 314/2/6
f 311/1/6 312/1/6 315/1/6
f 315/1/6 312/1/6 316/1/6
f 313/2/6 314/2/6 317/2/6
f 314/2/6 308/2/6 318/2/6
f 317/2/6 314/2/6 318/2/6
f 319/3/6 320/3/6 321/3/6
f 321/3/6 320/3/6 322/3/6
f 323/3/6 324/3/6 325/3/6
f 325/3/6 324/3/6 326/3/6
f 327/3/6 328/3/6 329/3/6
f 327/3/6 329/3/6 335/3/6
f 329/3/6 330/3/6 335/3/6
f 335/3/6 330/3/6 336/3/6
f 331/3/6 332/3/6 337/3/6
f 337/3/6 332/3/6 338/3/6
f 333/1/6 334/1/6 339/1/6
f 339/1/6 334/1/6 340/1/6
f 331/3/6 337/3/6 341/3/6
f 341/3/6 337/3/6 342/3/6
f 340/1/6 334/1/6 343/1/6
f 343/1/6 334/1/6 344/1/6
f 345/2/6 346/2/6 347/2/6
f 347/2/6 346/2/6 348/2/6
f 349/3/6 350/3/6 351/3/6
f 351/3/6 350/3/6 352/3/6
