# MagicaVoxel @ Ephtracy

# group
g Flowers

# material
mtllib Flowers.mtl
usemtl palette

# normals
vn -1 0 0
vn 1 0 0
vn 0 0 1
vn 0 0 -1
vn 0 -1 0
vn 0 1 0

# texcoords
vt 0.845703 0.5
vt 0.849609 0.5
vt 0.853516 0.5
vt 0.943359 0.5

# verts
v -6 0 6.5
v -6 0 5.5
v -6 0 -2.5
v -6 0 -3.5
v -6 1 6.5
v -6 1 5.5
v -6 1 -2.5
v -6 1 -3.5
v -6 2 6.5
v -6 2 5.5
v -6 2 -2.5
v -6 2 -3.5
v -5 0 2.5
v -5 0 1.5
v -5 2 2.5
v -5 2 1.5
v -5 3 2.5
v -5 3 1.5
v -3 0 -6.5
v -3 0 -7.5
v -3 1 -6.5
v -3 1 -7.5
v -3 2 -6.5
v -3 2 -7.5
v -2 0 5.5
v -2 0 4.5
v -2 0 0.5
v -2 0 -0.5
v -2 1 5.5
v -2 1 4.5
v -2 1 0.5
v -2 1 -0.5
v -2 2 5.5
v -2 2 4.5
v -2 2 0.5
v -2 2 -0.5
v 1 0 2.5
v 1 0 1.5
v 1 0 -2.5
v 1 0 -3.5
v 1 1 -2.5
v 1 1 -3.5
v 1 2 -2.5
v 1 2 -3.5
v 1 3 2.5
v 1 3 1.5
v 1 4 2.5
v 1 4 1.5
v 2 0 7.5
v 2 0 6.5
v 2 2 7.5
v 2 2 6.5
v 2 3 7.5
v 2 3 6.5
v 5 0 3.5
v 5 0 2.5
v 5 1 3.5
v 5 1 2.5
v 5 2 3.5
v 5 2 2.5
v -5 0 6.5
v -5 0 5.5
v -5 0 -2.5
v -5 0 -3.5
v -5 1 6.5
v -5 1 5.5
v -5 1 -2.5
v -5 1 -3.5
v -5 2 6.5
v -5 2 5.5
v -5 2 -2.5
v -5 2 -3.5
v -4 0 2.5
v -4 0 1.5
v -4 2 2.5
v -4 2 1.5
v -4 3 2.5
v -4 3 1.5
v -2 0 -6.5
v -2 0 -7.5
v -2 1 -6.5
v -2 1 -7.5
v -2 2 -6.5
v -2 2 -7.5
v -1 0 5.5
v -1 0 4.5
v -1 0 0.5
v -1 0 -0.5
v -1 1 5.5
v -1 1 4.5
v -1 1 0.5
v -1 1 -0.5
v -1 2 5.5
v -1 2 4.5
v -1 2 0.5
v -1 2 -0.5
v 2 0 2.5
v 2 0 1.5
v 2 0 -2.5
v 2 0 -3.5
v 2 1 -2.5
v 2 1 -3.5
v 2 2 -2.5
v 2 2 -3.5
v 2 3 2.5
v 2 3 1.5
v 2 4 2.5
v 2 4 1.5
v 3 0 7.5
v 3 0 6.5
v 3 2 7.5
v 3 2 6.5
v 3 3 7.5
v 3 3 6.5
v 6 0 3.5
v 6 0 2.5
v 6 1 3.5
v 6 1 2.5
v 6 2 3.5
v 6 2 2.5
v 2 0 7.5
v 2 2 7.5
v 2 3 7.5
v 3 0 7.5
v 3 2 7.5
v 3 3 7.5
v -6 0 6.5
v -6 1 6.5
v -6 2 6.5
v -5 0 6.5
v -5 1 6.5
v -5 2 6.5
v -2 0 5.5
v -2 1 5.5
v -2 2 5.5
v -1 0 5.5
v -1 1 5.5
v -1 2 5.5
v 5 0 3.5
v 5 1 3.5
v 5 2 3.5
v 6 0 3.5
v 6 1 3.5
v 6 2 3.5
v -5 0 2.5
v -5 2 2.5
v -5 3 2.5
v -4 0 2.5
v -4 2 2.5
v -4 3 2.5
v 1 0 2.5
v 1 3 2.5
v 1 4 2.5
v 2 0 2.5
v 2 3 2.5
v 2 4 2.5
v -2 0 0.5
v -2 1 0.5
v -2 2 0.5
v -1 0 0.5
v -1 1 0.5
v -1 2 0.5
v -6 0 -2.5
v -6 1 -2.5
v -6 2 -2.5
v -5 0 -2.5
v -5 1 -2.5
v -5 2 -2.5
v 1 0 -2.5
v 1 1 -2.5
v 1 2 -2.5
v 2 0 -2.5
v 2 1 -2.5
v 2 2 -2.5
v -3 0 -6.5
v -3 1 -6.5
v -3 2 -6.5
v -2 0 -6.5
v -2 1 -6.5
v -2 2 -6.5
v 2 0 6.5
v 2 2 6.5
v 2 3 6.5
v 3 0 6.5
v 3 2 6.5
v 3 3 6.5
v -6 0 5.5
v -6 1 5.5
v -6 2 5.5
v -5 0 5.5
v -5 1 5.5
v -5 2 5.5
v -2 0 4.5
v -2 1 4.5
v -2 2 4.5
v -1 0 4.5
v -1 1 4.5
v -1 2 4.5
v 5 0 2.5
v 5 1 2.5
v 5 2 2.5
v 6 0 2.5
v 6 1 2.5
v 6 2 2.5
v -5 0 1.5
v -5 2 1.5
v -5 3 1.5
v -4 0 1.5
v -4 2 1.5
v -4 3 1.5
v 1 0 1.5
v 1 3 1.5
v 1 4 1.5
v 2 0 1.5
v 2 3 1.5
v 2 4 1.5
v -2 0 -0.5
v -2 1 -0.5
v -2 2 -0.5
v -1 0 -0.5
v -1 1 -0.5
v -1 2 -0.5
v -6 0 -3.5
v -6 1 -3.5
v -6 2 -3.5
v -5 0 -3.5
v -5 1 -3.5
v -5 2 -3.5
v 1 0 -3.5
v 1 1 -3.5
v 1 2 -3.5
v 2 0 -3.5
v 2 1 -3.5
v 2 2 -3.5
v -3 0 -7.5
v -3 1 -7.5
v -3 2 -7.5
v -2 0 -7.5
v -2 1 -7.5
v -2 2 -7.5
v 2 0 7.5
v 3 0 7.5
v -6 0 6.5
v -5 0 6.5
v 2 0 6.5
v 3 0 6.5
v -6 0 5.5
v -5 0 5.5
v -2 0 5.5
v -1 0 5.5
v -2 0 4.5
v -1 0 4.5
v 5 0 3.5
v 6 0 3.5
v -5 0 2.5
v -4 0 2.5
v 1 0 2.5
v 2 0 2.5
v 5 0 2.5
v 6 0 2.5
v -5 0 1.5
v -4 0 1.5
v 1 0 1.5
v 2 0 1.5
v -2 0 0.5
v -1 0 0.5
v -2 0 -0.5
v -1 0 -0.5
v -6 0 -2.5
v -5 0 -2.5
v 1 0 -2.5
v 2 0 -2.5
v -6 0 -3.5
v -5 0 -3.5
v 1 0 -3.5
v 2 0 -3.5
v -3 0 -6.5
v -2 0 -6.5
v -3 0 -7.5
v -2 0 -7.5
v -6 2 6.5
v -5 2 6.5
v -6 2 5.5
v -5 2 5.5
v -2 2 5.5
v -1 2 5.5
v -2 2 4.5
v -1 2 4.5
v 5 2 3.5
v 6 2 3.5
v 5 2 2.5
v 6 2 2.5
v -2 2 0.5
v -1 2 0.5
v -2 2 -0.5
v -1 2 -0.5
v -6 2 -2.5
v -5 2 -2.5
v 1 2 -2.5
v 2 2 -2.5
v -6 2 -3.5
v -5 2 -3.5
v 1 2 -3.5
v 2 2 -3.5
v -3 2 -6.5
v -2 2 -6.5
v -3 2 -7.5
v -2 2 -7.5
v 2 3 7.5
v 3 3 7.5
v 2 3 6.5
v 3 3 6.5
v -5 3 2.5
v -4 3 2.5
v -5 3 1.5
v -4 3 1.5
v 1 4 2.5
v 2 4 2.5
v 1 4 1.5
v 2 4 1.5

# faces
f 5/4/1 2/4/1 1/4/1
f 6/4/1 2/4/1 5/4/1
f 7/4/1 4/4/1 3/4/1
f 8/4/1 4/4/1 7/4/1
f 9/1/1 6/1/1 5/1/1
f 10/1/1 6/1/1 9/1/1
f 11/1/1 8/1/1 7/1/1
f 12/1/1 8/1/1 11/1/1
f 15/4/1 14/4/1 13/4/1
f 16/4/1 14/4/1 15/4/1
f 17/3/1 16/3/1 15/3/1
f 18/3/1 16/3/1 17/3/1
f 21/4/1 20/4/1 19/4/1
f 22/4/1 20/4/1 21/4/1
f 23/2/1 22/2/1 21/2/1
f 24/2/1 22/2/1 23/2/1
f 29/4/1 26/4/1 25/4/1
f 30/4/1 26/4/1 29/4/1
f 31/4/1 28/4/1 27/4/1
f 32/4/1 28/4/1 31/4/1
f 33/2/1 30/2/1 29/2/1
f 34/2/1 30/2/1 33/2/1
f 35/3/1 32/3/1 31/3/1
f 36/3/1 32/3/1 35/3/1
f 41/4/1 40/4/1 39/4/1
f 42/4/1 40/4/1 41/4/1
f 43/3/1 42/3/1 41/3/1
f 44/3/1 42/3/1 43/3/1
f 45/4/1 38/4/1 37/4/1
f 46/4/1 38/4/1 45/4/1
f 47/1/1 46/1/1 45/1/1
f 48/1/1 46/1/1 47/1/1
f 51/4/1 50/4/1 49/4/1
f 52/4/1 50/4/1 51/4/1
f 53/3/1 52/3/1 51/3/1
f 54/3/1 52/3/1 53/3/1
f 57/4/1 56/4/1 55/4/1
f 58/4/1 56/4/1 57/4/1
f 59/2/1 58/2/1 57/2/1
f 60/2/1 58/2/1 59/2/1
f 61/4/2 62/4/2 65/4/2
f 65/4/2 62/4/2 66/4/2
f 63/4/2 64/4/2 67/4/2
f 67/4/2 64/4/2 68/4/2
f 65/1/2 66/1/2 69/1/2
f 69/1/2 66/1/2 70/1/2
f 67/1/2 68/1/2 71/1/2
f 71/1/2 68/1/2 72/1/2
f 73/4/2 74/4/2 75/4/2
f 75/4/2 74/4/2 76/4/2
f 75/3/2 76/3/2 77/3/2
f 77/3/2 76/3/2 78/3/2
f 79/4/2 80/4/2 81/4/2
f 81/4/2 80/4/2 82/4/2
f 81/2/2 82/2/2 83/2/2
f 83/2/2 82/2/2 84/2/2
f 85/4/2 86/4/2 89/4/2
f 89/4/2 86/4/2 90/4/2
f 87/4/2 88/4/2 91/4/2
f 91/4/2 88/4/2 92/4/2
f 89/2/2 90/2/2 93/2/2
f 93/2/2 90/2/2 94/2/2
f 91/3/2 92/3/2 95/3/2
f 95/3/2 92/3/2 96/3/2
f 99/4/2 100/4/2 101/4/2
f 101/4/2 100/4/2 102/4/2
f 101/3/2 102/3/2 103/3/2
f 103/3/2 102/3/2 104/3/2
f 97/4/2 98/4/2 105/4/2
f 105/4/2 98/4/2 106/4/2
f 105/1/2 106/1/2 107/1/2
f 107/1/2 106/1/2 108/1/2
f 109/4/2 110/4/2 111/4/2
f 111/4/2 110/4/2 112/4/2
f 111/3/2 112/3/2 113/3/2
f 113/3/2 112/3/2 114/3/2
f 115/4/2 116/4/2 117/4/2
f 117/4/2 116/4/2 118/4/2
f 117/2/2 118/2/2 119/2/2
f 119/2/2 118/2/2 120/2/2
f 124/4/3 122/4/3 121/4/3
f 125/3/3 123/3/3 122/3/3
f 125/4/3 122/4/3 124/4/3
f 126/3/3 123/3/3 125/3/3
f 130/4/3 128/4/3 127/4/3
f 131/1/3 129/1/3 128/1/3
f 131/4/3 128/4/3 130/4/3
f 132/1/3 129/1/3 131/1/3
f 136/4/3 134/4/3 133/4/3
f 137/2/3 135/2/3 134/2/3
f 137/4/3 134/4/3 136/4/3
f 138/2/3 135/2/3 137/2/3
f 142/4/3 140/4/3 139/4/3
f 143/2/3 141/2/3 140/2/3
f 143/4/3 140/4/3 142/4/3
f 144/2/3 141/2/3 143/2/3
f 148/4/3 146/4/3 145/4/3
f 149/3/3 147/3/3 146/3/3
f 149/4/3 146/4/3 148/4/3
f 150/3/3 147/3/3 149/3/3
f 154/4/3 152/4/3 151/4/3
f 155/1/3 153/1/3 152/1/3
f 155/4/3 152/4/3 154/4/3
f 156/1/3 153/1/3 155/1/3
f 160/4/3 158/4/3 157/4/3
f 161/3/3 159/3/3 158/3/3
f 161/4/3 158/4/3 160/4/3
f 162/3/3 159/3/3 161/3/3
f 166/4/3 164/4/3 163/4/3
f 167/1/3 165/1/3 164/1/3
f 167/4/3 164/4/3 166/4/3
f 168/1/3 165/1/3 167/1/3
f 172/4/3 170/4/3 169/4/3
f 173/3/3 171/3/3 170/3/3
f 173/4/3 170/4/3 172/4/3
f 174/3/3 171/3/3 173/3/3
f 178/4/3 176/4/3 175/4/3
f 179/2/3 177/2/3 176/2/3
f 179/4/3 176/4/3 178/4/3
f 180/2/3 177/2/3 179/2/3
f 181/4/4 182/4/4 184/4/4
f 182/3/4 183/3/4 185/3/4
f 184/4/4 182/4/4 185/4/4
f 185/3/4 183/3/4 186/3/4
f 187/4/4 188/4/4 190/4/4
f 188/1/4 189/1/4 191/1/4
f 190/4/4 188/4/4 191/4/4
f 191/1/4 189/1/4 192/1/4
f 193/4/4 194/4/4 196/4/4
f 194/2/4 195/2/4 197/2/4
f 196/4/4 194/4/4 197/4/4
f 197/2/4 195/2/4 198/2/4
f 199/4/4 200/4/4 202/4/4
f 200/2/4 201/2/4 203/2/4
f 202/4/4 200/4/4 203/4/4
f 203/2/4 201/2/4 204/2/4
f 205/4/4 206/4/4 208/4/4
f 206/3/4 207/3/4 209/3/4
f 208/4/4 206/4/4 209/4/4
f 209/3/4 207/3/4 210/3/4
f 211/4/4 212/4/4 214/4/4
f 212/1/4 213/1/4 215/1/4
f 214/4/4 212/4/4 215/4/4
f 215/1/4 213/1/4 216/1/4
f 217/4/4 218/4/4 220/4/4
f 218/3/4 219/3/4 221/3/4
f 220/4/4 218/4/4 221/4/4
f 221/3/4 219/3/4 222/3/4
f 223/4/4 224/4/4 226/4/4
f 224/1/4 225/1/4 227/1/4
f 226/4/4 224/4/4 227/4/4
f 227/1/4 225/1/4 228/1/4
f 229/4/4 230/4/4 232/4/4
f 230/3/4 231/3/4 233/3/4
f 232/4/4 230/4/4 233/4/4
f 233/3/4 231/3/4 234/3/4
f 235/4/4 236/4/4 238/4/4
f 236/2/4 237/2/4 239/2/4
f 238/4/4 236/4/4 239/4/4
f 239/2/4 237/2/4 240/2/4
f 245/4/5 242/4/5 241/4/5
f 246/4/5 242/4/5 245/4/5
f 247/4/5 244/4/5 243/4/5
f 248/4/5 244/4/5 247/4/5
f 251/4/5 250/4/5 249/4/5
f 252/4/5 250/4/5 251/4/5
f 259/4/5 254/4/5 253/4/5
f 260/4/5 254/4/5 259/4/5
f 261/4/5 256/4/5 255/4/5
f 262/4/5 256/4/5 261/4/5
f 263/4/5 258/4/5 257/4/5
f 264/4/5 258/4/5 263/4/5
f 267/4/5 266/4/5 265/4/5
f 268/4/5 266/4/5 267/4/5
f 273/4/5 270/4/5 269/4/5
f 274/4/5 270/4/5 273/4/5
f 275/4/5 272/4/5 271/4/5
f 276/4/5 272/4/5 275/4/5
f 279/4/5 278/4/5 277/4/5
f 280/4/5 278/4/5 279/4/5
f 281/1/6 282/1/6 283/1/6
f 283/1/6 282/1/6 284/1/6
f 285/2/6 286/2/6 287/2/6
f 287/2/6 286/2/6 288/2/6
f 289/2/6 290/2/6 291/2/6
f 291/2/6 290/2/6 292/2/6
f 293/3/6 294/3/6 295/3/6
f 295/3/6 294/3/6 296/3/6
f 297/1/6 298/1/6 301/1/6
f 301/1/6 298/1/6 302/1/6
f 299/3/6 300/3/6 303/3/6
f 303/3/6 300/3/6 304/3/6
f 305/2/6 306/2/6 307/2/6
f 307/2/6 306/2/6 308/2/6
f 309/3/6 310/3/6 311/3/6
f 311/3/6 310/3/6 312/3/6
f 313/3/6 314/3/6 315/3/6
f 315/3/6 314/3/6 316/3/6
f 317/1/6 318/1/6 319/1/6
f 319/1/6 318/1/6 320/1/6
