# MagicaVoxel @ Ephtracy

# group
g grass

# material
mtllib grass.mtl
usemtl palette

# normals
vn -1 0 0
vn 1 0 0
vn 0 0 1
vn 0 0 -1
vn 0 -1 0
vn 0 1 0

# texcoords
vt 0.943359 0.5
vt 0.974609 0.5
vt 0.978516 0.5

# verts
v -5.5 0 1
v -5.5 0 -0
v -5.5 1 1
v -5.5 1 -0
v -4.5 0 5
v -4.5 0 4
v -4.5 0 -2
v -4.5 0 -3
v -4.5 2 5
v -4.5 2 4
v -4.5 2 -2
v -4.5 2 -3
v -3.5 0 -5
v -3.5 0 -6
v -3.5 2 -5
v -3.5 2 -6
v -2.5 0 3
v -2.5 0 2
v -2.5 2 3
v -2.5 2 2
v -1.5 0 -0
v -1.5 0 -1
v -1.5 1 -0
v -1.5 1 -1
v 0.5 0 6
v 0.5 0 5
v 0.5 0 -2
v 0.5 0 -3
v 0.5 1 6
v 0.5 1 5
v 0.5 2 -2
v 0.5 2 -3
v 2.5 0 1
v 2.5 0 -0
v 2.5 1 1
v 2.5 1 -0
v 3.5 0 5
v 3.5 0 4
v 3.5 1 5
v 3.5 1 4
v 4.5 0 -1
v 4.5 0 -2
v 4.5 1 -1
v 4.5 1 -2
v -4.5 0 1
v -4.5 0 -0
v -4.5 1 1
v -4.5 1 -0
v -3.5 0 5
v -3.5 0 4
v -3.5 0 -2
v -3.5 0 -3
v -3.5 2 5
v -3.5 2 4
v -3.5 2 -2
v -3.5 2 -3
v -2.5 0 -5
v -2.5 0 -6
v -2.5 2 -5
v -2.5 2 -6
v -1.5 0 3
v -1.5 0 2
v -1.5 2 3
v -1.5 2 2
v -0.5 0 -0
v -0.5 0 -1
v -0.5 1 -0
v -0.5 1 -1
v 1.5 0 6
v 1.5 0 5
v 1.5 0 -2
v 1.5 0 -3
v 1.5 1 6
v 1.5 1 5
v 1.5 2 -2
v 1.5 2 -3
v 3.5 0 1
v 3.5 0 -0
v 3.5 1 1
v 3.5 1 -0
v 4.5 0 5
v 4.5 0 4
v 4.5 1 5
v 4.5 1 4
v 5.5 0 -1
v 5.5 0 -2
v 5.5 1 -1
v 5.5 1 -2
v 0.5 0 6
v 0.5 1 6
v 1.5 0 6
v 1.5 1 6
v -4.5 0 5
v -4.5 2 5
v -3.5 0 5
v -3.5 2 5
v 3.5 0 5
v 3.5 1 5
v 4.5 0 5
v 4.5 1 5
v -2.5 0 3
v -2.5 2 3
v -1.5 0 3
v -1.5 2 3
v -5.5 0 1
v -5.5 1 1
v -4.5 0 1
v -4.5 1 1
v 2.5 0 1
v 2.5 1 1
v 3.5 0 1
v 3.5 1 1
v -1.5 0 -0
v -1.5 1 -0
v -0.5 0 -0
v -0.5 1 -0
v 4.5 0 -1
v 4.5 1 -1
v 5.5 0 -1
v 5.5 1 -1
v -4.5 0 -2
v -4.5 2 -2
v -3.5 0 -2
v -3.5 2 -2
v 0.5 0 -2
v 0.5 2 -2
v 1.5 0 -2
v 1.5 2 -2
v -3.5 0 -5
v -3.5 2 -5
v -2.5 0 -5
v -2.5 2 -5
v 0.5 0 5
v 0.5 1 5
v 1.5 0 5
v 1.5 1 5
v -4.5 0 4
v -4.5 2 4
v -3.5 0 4
v -3.5 2 4
v 3.5 0 4
v 3.5 1 4
v 4.5 0 4
v 4.5 1 4
v -2.5 0 2
v -2.5 2 2
v -1.5 0 2
v -1.5 2 2
v -5.5 0 -0
v -5.5 1 -0
v -4.5 0 -0
v -4.5 1 -0
v 2.5 0 -0
v 2.5 1 -0
v 3.5 0 -0
v 3.5 1 -0
v -1.5 0 -1
v -1.5 1 -1
v -0.5 0 -1
v -0.5 1 -1
v 4.5 0 -2
v 4.5 1 -2
v 5.5 0 -2
v 5.5 1 -2
v -4.5 0 -3
v -4.5 2 -3
v -3.5 0 -3
v -3.5 2 -3
v 0.5 0 -3
v 0.5 2 -3
v 1.5 0 -3
v 1.5 2 -3
v -3.5 0 -6
v -3.5 2 -6
v -2.5 0 -6
v -2.5 2 -6
v 0.5 0 6
v 1.5 0 6
v -4.5 0 5
v -3.5 0 5
v 0.5 0 5
v 1.5 0 5
v 3.5 0 5
v 4.5 0 5
v -4.5 0 4
v -3.5 0 4
v 3.5 0 4
v 4.5 0 4
v -2.5 0 3
v -1.5 0 3
v -2.5 0 2
v -1.5 0 2
v -5.5 0 1
v -4.5 0 1
v 2.5 0 1
v 3.5 0 1
v -5.5 0 -0
v -4.5 0 -0
v -1.5 0 -0
v -0.5 0 -0
v 2.5 0 -0
v 3.5 0 -0
v -1.5 0 -1
v -0.5 0 -1
v 4.5 0 -1
v 5.5 0 -1
v -4.5 0 -2
v -3.5 0 -2
v 0.5 0 -2
v 1.5 0 -2
v 4.5 0 -2
v 5.5 0 -2
v -4.5 0 -3
v -3.5 0 -3
v 0.5 0 -3
v 1.5 0 -3
v -3.5 0 -5
v -2.5 0 -5
v -3.5 0 -6
v -2.5 0 -6
v 0.5 1 6
v 1.5 1 6
v 0.5 1 5
v 1.5 1 5
v 3.5 1 5
v 4.5 1 5
v 3.5 1 4
v 4.5 1 4
v -5.5 1 1
v -4.5 1 1
v 2.5 1 1
v 3.5 1 1
v -5.5 1 -0
v -4.5 1 -0
v -1.5 1 -0
v -0.5 1 -0
v 2.5 1 -0
v 3.5 1 -0
v -1.5 1 -1
v -0.5 1 -1
v 4.5 1 -1
v 5.5 1 -1
v 4.5 1 -2
v 5.5 1 -2
v -4.5 2 5
v -3.5 2 5
v -4.5 2 4
v -3.5 2 4
v -2.5 2 3
v -1.5 2 3
v -2.5 2 2
v -1.5 2 2
v -4.5 2 -2
v -3.5 2 -2
v 0.5 2 -2
v 1.5 2 -2
v -4.5 2 -3
v -3.5 2 -3
v 0.5 2 -3
v 1.5 2 -3
v -3.5 2 -5
v -2.5 2 -5
v -3.5 2 -6
v -2.5 2 -6

# faces
f 3/1/1 2/1/1 1/1/1
f 4/1/1 2/1/1 3/1/1
f 9/3/1 6/3/1 5/3/1
f 10/3/1 6/3/1 9/3/1
f 11/2/1 8/2/1 7/2/1
f 12/2/1 8/2/1 11/2/1
f 15/1/1 14/1/1 13/1/1
f 16/1/1 14/1/1 15/1/1
f 19/2/1 18/2/1 17/2/1
f 20/2/1 18/2/1 19/2/1
f 23/3/1 22/3/1 21/3/1
f 24/3/1 22/3/1 23/3/1
f 29/1/1 26/1/1 25/1/1
f 30/1/1 26/1/1 29/1/1
f 31/2/1 28/2/1 27/2/1
f 32/2/1 28/2/1 31/2/1
f 35/1/1 34/1/1 33/1/1
f 36/1/1 34/1/1 35/1/1
f 39/3/1 38/3/1 37/3/1
f 40/3/1 38/3/1 39/3/1
f 43/3/1 42/3/1 41/3/1
f 44/3/1 42/3/1 43/3/1
f 45/1/2 46/1/2 47/1/2
f 47/1/2 46/1/2 48/1/2
f 49/3/2 50/3/2 53/3/2
f 53/3/2 50/3/2 54/3/2
f 51/2/2 52/2/2 55/2/2
f 55/2/2 52/2/2 56/2/2
f 57/1/2 58/1/2 59/1/2
f 59/1/2 58/1/2 60/1/2
f 61/2/2 62/2/2 63/2/2
f 63/2/2 62/2/2 64/2/2
f 65/3/2 66/3/2 67/3/2
f 67/3/2 66/3/2 68/3/2
f 69/1/2 70/1/2 73/1/2
f 73/1/2 70/1/2 74/1/2
f 71/2/2 72/2/2 75/2/2
f 75/2/2 72/2/2 76/2/2
f 77/1/2 78/1/2 79/1/2
f 79/1/2 78/1/2 80/1/2
f 81/3/2 82/3/2 83/3/2
f 83/3/2 82/3/2 84/3/2
f 85/3/2 86/3/2 87/3/2
f 87/3/2 86/3/2 88/3/2
f 91/1/3 90/1/3 89/1/3
f 92/1/3 90/1/3 91/1/3
f 95/3/3 94/3/3 93/3/3
f 96/3/3 94/3/3 95/3/3
f 99/3/3 98/3/3 97/3/3
f 100/3/3 98/3/3 99/3/3
f 103/2/3 102/2/3 101/2/3
f 104/2/3 102/2/3 103/2/3
f 107/1/3 106/1/3 105/1/3
f 108/1/3 106/1/3 107/1/3
f 111/1/3 110/1/3 109/1/3
f 112/1/3 110/1/3 111/1/3
f 115/3/3 114/3/3 113/3/3
f 116/3/3 114/3/3 115/3/3
f 119/3/3 118/3/3 117/3/3
f 120/3/3 118/3/3 119/3/3
f 123/2/3 122/2/3 121/2/3
f 124/2/3 122/2/3 123/2/3
f 127/2/3 126/2/3 125/2/3
f 128/2/3 126/2/3 127/2/3
f 131/1/3 130/1/3 129/1/3
f 132/1/3 130/1/3 131/1/3
f 133/1/4 134/1/4 135/1/4
f 135/1/4 134/1/4 136/1/4
f 137/3/4 138/3/4 139/3/4
f 139/3/4 138/3/4 140/3/4
f 141/3/4 142/3/4 143/3/4
f 143/3/4 142/3/4 144/3/4
f 145/2/4 146/2/4 147/2/4
f 147/2/4 146/2/4 148/2/4
f 149/1/4 150/1/4 151/1/4
f 151/1/4 150/1/4 152/1/4
f 153/1/4 154/1/4 155/1/4
f 155/1/4 154/1/4 156/1/4
f 157/3/4 158/3/4 159/3/4
f 159/3/4 158/3/4 160/3/4
f 161/3/4 162/3/4 163/3/4
f 163/3/4 162/3/4 164/3/4
f 165/2/4 166/2/4 167/2/4
f 167/2/4 166/2/4 168/2/4
f 169/2/4 170/2/4 171/2/4
f 171/2/4 170/2/4 172/2/4
f 173/1/4 174/1/4 175/1/4
f 175/1/4 174/1/4 176/1/4
f 181/1/5 178/1/5 177/1/5
f 182/1/5 178/1/5 181/1/5
f 185/3/5 180/3/5 179/3/5
f 186/3/5 180/3/5 185/3/5
f 187/3/5 184/3/5 183/3/5
f 188/3/5 184/3/5 187/3/5
f 191/2/5 190/2/5 189/2/5
f 192/2/5 190/2/5 191/2/5
f 197/1/5 194/1/5 193/1/5
f 198/1/5 194/1/5 197/1/5
f 201/1/5 196/1/5 195/1/5
f 202/1/5 196/1/5 201/1/5
f 203/3/5 200/3/5 199/3/5
f 204/3/5 200/3/5 203/3/5
f 211/3/5 206/3/5 205/3/5
f 212/3/5 206/3/5 211/3/5
f 213/2/5 208/2/5 207/2/5
f 214/2/5 208/2/5 213/2/5
f 215/2/5 210/2/5 209/2/5
f 216/2/5 210/2/5 215/2/5
f 219/1/5 218/1/5 217/1/5
f 220/1/5 218/1/5 219/1/5
f 221/1/6 222/1/6 223/1/6
f 223/1/6 222/1/6 224/1/6
f 225/3/6 226/3/6 227/3/6
f 227/3/6 226/3/6 228/3/6
f 229/1/6 230/1/6 233/1/6
f 233/1/6 230/1/6 234/1/6
f 231/1/6 232/1/6 237/1/6
f 237/1/6 232/1/6 238/1/6
f 235/3/6 236/3/6 239/3/6
f 239/3/6 236/3/6 240/3/6
f 241/3/6 242/3/6 243/3/6
f 243/3/6 242/3/6 244/3/6
f 245/3/6 246/3/6 247/3/6
f 247/3/6 246/3/6 248/3/6
f 249/2/6 250/2/6 251/2/6
f 251/2/6 250/2/6 252/2/6
f 253/2/6 254/2/6 257/2/6
f 257/2/6 254/2/6 258/2/6
f 255/2/6 256/2/6 259/2/6
f 259/2/6 256/2/6 260/2/6
f 261/1/6 262/1/6 263/1/6
f 263/1/6 262/1/6 264/1/6
