# MagicaVoxel @ Ephtracy

# group
g Tree trunk down

# material
mtllib Tree trunk down.mtl
usemtl palette

# normals
vn -1 0 0
vn 1 0 0
vn 0 0 1
vn 0 0 -1
vn 0 -1 0
vn 0 1 0

# texcoords
vt 0.939453 0.5
vt 0.943359 0.5
vt 0.970703 0.5
vt 0.982422 0.5
vt 0.986328 0.5
vt 0.990234 0.5

# verts
v -19.5 0 8
v -19.5 0 -8
v -19.5 2 6
v -19.5 2 5
v -19.5 2 2
v -19.5 2 1
v -19.5 2 -5
v -19.5 2 -6
v -19.5 3 6
v -19.5 3 5
v -19.5 3 4
v -19.5 3 2
v -19.5 3 1
v -19.5 3 -4
v -19.5 3 -5
v -19.5 3 -6
v -19.5 4 5
v -19.5 4 4
v -19.5 4 3
v -19.5 4 -3
v -19.5 4 -4
v -19.5 4 -5
v -19.5 5 4
v -19.5 5 3
v -19.5 5 -3
v -19.5 5 -4
v -19.5 6 2
v -19.5 6 -2
v -19.5 6 -5
v -19.5 6 -6
v -19.5 7 -5
v -19.5 7 -6
v -19.5 8 6
v -19.5 8 5
v -19.5 9 6
v -19.5 9 5
v -19.5 10 2
v -19.5 10 -2
v -19.5 11 4
v -19.5 11 3
v -19.5 11 -3
v -19.5 11 -4
v -19.5 12 5
v -19.5 12 4
v -19.5 12 3
v -19.5 12 -3
v -19.5 12 -4
v -19.5 12 -5
v -19.5 13 6
v -19.5 13 5
v -19.5 13 4
v -19.5 13 -2
v -19.5 13 -3
v -19.5 13 -4
v -19.5 13 -5
v -19.5 13 -6
v -19.5 14 6
v -19.5 14 5
v -19.5 14 -2
v -19.5 14 -3
v -19.5 14 -5
v -19.5 14 -6
v -19.5 16 8
v -19.5 16 -8
v -16.5 16 3
v -16.5 16 -4
v -16.5 20 3
v -16.5 20 -4
v -12.5 4 -8
v -12.5 4 -12
v -12.5 12 -8
v -12.5 12 -12
v -11.5 16 8
v -11.5 16 3
v -11.5 20 8
v -11.5 20 3
v -9.5 8 12
v -9.5 8 8
v -9.5 12 12
v -9.5 12 8
v 7.5 16 8
v 7.5 16 -4
v 7.5 20 8
v 7.5 20 -4
v 11.5 4 -8
v 11.5 4 -12
v 11.5 8 12
v 11.5 8 8
v 11.5 12 12
v 11.5 12 8
v 11.5 12 -8
v 11.5 12 -12
v 19.5 0 8
v 19.5 0 -8
v 19.5 2 6
v 19.5 2 5
v 19.5 2 -2
v 19.5 2 -3
v 19.5 2 -5
v 19.5 2 -6
v 19.5 3 6
v 19.5 3 5
v 19.5 3 4
v 19.5 3 -2
v 19.5 3 -3
v 19.5 3 -4
v 19.5 3 -5
v 19.5 3 -6
v 19.5 4 5
v 19.5 4 4
v 19.5 4 3
v 19.5 4 -3
v 19.5 4 -4
v 19.5 4 -5
v 19.5 5 4
v 19.5 5 3
v 19.5 5 -3
v 19.5 5 -4
v 19.5 6 2
v 19.5 6 -2
v 19.5 7 6
v 19.5 7 5
v 19.5 8 6
v 19.5 8 5
v 19.5 8 -5
v 19.5 8 -6
v 19.5 9 -5
v 19.5 9 -6
v 19.5 10 2
v 19.5 10 -2
v 19.5 11 4
v 19.5 11 3
v 19.5 11 -3
v 19.5 11 -4
v 19.5 12 5
v 19.5 12 4
v 19.5 12 3
v 19.5 12 -3
v 19.5 12 -4
v 19.5 12 -5
v 19.5 13 6
v 19.5 13 5
v 19.5 13 4
v 19.5 13 -1
v 19.5 13 -2
v 19.5 13 -4
v 19.5 13 -5
v 19.5 13 -6
v 19.5 14 6
v 19.5 14 5
v 19.5 14 -1
v 19.5 14 -2
v 19.5 14 -5
v 19.5 14 -6
v 19.5 16 8
v 19.5 16 -8
v -9.5 8 12
v -9.5 12 12
v 4.5 10 12
v 4.5 11 12
v 9.5 10 12
v 9.5 11 12
v 11.5 8 12
v 11.5 12 12
v -19.5 0 8
v -19.5 16 8
v -18.5 13 8
v -18.5 15 8
v -15.5 2 8
v -15.5 4 8
v -15.5 7 8
v -15.5 8 8
v -14.5 13 8
v -14.5 15 8
v -13.5 7 8
v -13.5 8 8
v -11.5 2 8
v -11.5 4 8
v -11.5 16 8
v -11.5 20 8
v -9.5 8 8
v -9.5 12 8
v -7.5 15 8
v -7.5 16 8
v -3.5 3 8
v -3.5 5 8
v -2.5 15 8
v -2.5 16 8
v -1.5 3 8
v -1.5 5 8
v -0.5 3 8
v -0.5 5 8
v 2.5 14 8
v 2.5 15 8
v 3.5 14 8
v 3.5 15 8
v 4.5 14 8
v 4.5 15 8
v 7.5 16 8
v 7.5 20 8
v 11.5 3 8
v 11.5 5 8
v 11.5 8 8
v 11.5 12 8
v 12.5 7 8
v 12.5 8 8
v 16.5 14 8
v 16.5 15 8
v 17.5 14 8
v 17.5 15 8
v 18.5 7 8
v 18.5 8 8
v 18.5 14 8
v 18.5 15 8
v 19.5 0 8
v 19.5 16 8
v -16.5 16 3
v -16.5 20 3
v -11.5 16 3
v -11.5 20 3
v -16.5 16 -4
v -16.5 20 -4
v 7.5 16 -4
v 7.5 20 -4
v -19.5 0 -8
v -19.5 16 -8
v -18.5 1 -8
v -18.5 2 -8
v -17.5 6 -8
v -17.5 7 -8
v -16.5 6 -8
v -16.5 7 -8
v -15.5 12 -8
v -15.5 14 -8
v -12.5 4 -8
v -12.5 12 -8
v -10.5 1 -8
v -10.5 2 -8
v -9.5 12 -8
v -9.5 14 -8
v 0.5 13 -8
v 0.5 15 -8
v 11.5 4 -8
v 11.5 12 -8
v 13.5 13 -8
v 13.5 15 -8
v 14.5 4 -8
v 14.5 5 -8
v 14.5 8 -8
v 14.5 9 -8
v 17.5 8 -8
v 17.5 9 -8
v 18.5 4 -8
v 18.5 5 -8
v 19.5 0 -8
v 19.5 16 -8
v -12.5 4 -12
v -12.5 12 -12
v -10.5 7 -12
v -10.5 8 -12
v -4.5 7 -12
v -4.5 8 -12
v -0.5 7 -12
v -0.5 9 -12
v 1.5 4 -12
v 1.5 6 -12
v 8.5 4 -12
v 8.5 6 -12
v 8.5 7 -12
v 8.5 9 -12
v 11.5 4 -12
v 11.5 12 -12
v -19.5 0 8
v 19.5 0 8
v -3.5 0 7
v -2.5 0 7
v -0.5 0 7
v 3.5 0 7
v -3.5 0 6
v -2.5 0 6
v -0.5 0 6
v 3.5 0 6
v 5.5 0 4
v 6.5 0 4
v 7.5 0 4
v 13.5 0 4
v 14.5 0 4
v 15.5 0 4
v 5.5 0 3
v 6.5 0 3
v 7.5 0 3
v 13.5 0 3
v 14.5 0 3
v 15.5 0 3
v 4.5 0 -0
v 12.5 0 -0
v 4.5 0 -1
v 12.5 0 -1
v 0.5 0 -4
v 12.5 0 -4
v 14.5 0 -4
v 15.5 0 -4
v 0.5 0 -5
v 12.5 0 -5
v 14.5 0 -5
v 15.5 0 -5
v -19.5 0 -8
v 19.5 0 -8
v -12.5 4 -8
v 11.5 4 -8
v 1.5 4 -11
v 8.5 4 -11
v -12.5 4 -12
v 1.5 4 -12
v 8.5 4 -12
v 11.5 4 -12
v -9.5 8 12
v 11.5 8 12
v -9.5 8 8
v 11.5 8 8
v -9.5 12 12
v 11.5 12 12
v -9.5 12 8
v 11.5 12 8
v -12.5 12 -8
v -9.5 12 -8
v 11.5 12 -8
v -12.5 12 -12
v 11.5 12 -12
v -19.5 16 8
v -11.5 16 8
v 7.5 16 8
v 19.5 16 8
v -16.5 16 3
v -11.5 16 3
v 11.5 16 -1
v 17.5 16 -1
v 11.5 16 -2
v 17.5 16 -2
v -16.5 16 -4
v 7.5 16 -4
v 1.5 16 -5
v 15.5 16 -5
v 16.5 16 -5
v 18.5 16 -5
v 1.5 16 -7
v 15.5 16 -7
v 16.5 16 -7
v 18.5 16 -7
v -19.5 16 -8
v 19.5 16 -8
v -11.5 20 8
v 7.5 20 8
v -0.5 20 7
v 3.5 20 7
v -0.5 20 5
v 3.5 20 5
v -16.5 20 3
v -11.5 20 3
v -2.5 20 3
v -1.5 20 3
v -0.5 20 3
v 5.5 20 3
v -2.5 20 2
v -1.5 20 2
v -0.5 20 2
v 5.5 20 2
v -15.5 20 1
v -11.5 20 1
v -15.5 20 -0
v -11.5 20 -0
v -10.5 20 -1
v -3.5 20 -1
v -10.5 20 -2
v -3.5 20 -2
v -16.5 20 -4
v 7.5 20 -4

# faces
f 3/3/1 2/3/1 1/3/1
f 4/3/1 2/3/1 3/3/1
f 5/3/1 2/3/1 4/3/1
f 6/3/1 2/3/1 5/3/1
f 7/3/1 2/3/1 6/3/1
f 8/3/1 2/3/1 7/3/1
f 9/3/1 3/3/1 1/3/1
f 9/6/1 4/6/1 3/6/1
f 10/4/1 5/4/1 4/4/1
f 10/6/1 4/6/1 9/6/1
f 11/4/1 5/4/1 10/4/1
f 12/5/1 6/5/1 5/5/1
f 12/4/1 5/4/1 11/4/1
f 13/4/1 7/4/1 6/4/1
f 13/5/1 6/5/1 12/5/1
f 14/4/1 7/4/1 13/4/1
f 15/6/1 8/6/1 7/6/1
f 15/4/1 7/4/1 14/4/1
f 16/3/1 2/3/1 8/3/1
f 16/6/1 8/6/1 15/6/1
f 17/4/1 11/4/1 10/4/1
f 17/4/1 10/4/1 9/4/1
f 18/5/1 14/5/1 13/5/1
f 18/4/1 11/4/1 17/4/1
f 18/5/1 12/5/1 11/5/1
f 18/5/1 13/5/1 12/5/1
f 19/5/1 14/5/1 18/5/1
f 20/5/1 14/5/1 19/5/1
f 21/4/1 15/4/1 14/4/1
f 21/5/1 14/5/1 20/5/1
f 21/4/1 16/4/1 15/4/1
f 22/4/1 16/4/1 21/4/1
f 23/5/1 19/5/1 18/5/1
f 23/5/1 18/5/1 17/5/1
f 24/4/1 20/4/1 19/4/1
f 24/5/1 19/5/1 23/5/1
f 25/5/1 22/5/1 21/5/1
f 25/4/1 20/4/1 24/4/1
f 25/5/1 21/5/1 20/5/1
f 26/5/1 22/5/1 25/5/1
f 27/4/1 24/4/1 23/4/1
f 27/4/1 25/4/1 24/4/1
f 27/4/1 26/4/1 25/4/1
f 28/4/1 26/4/1 27/4/1
f 29/4/1 16/4/1 22/4/1
f 29/5/1 22/5/1 26/5/1
f 30/3/1 2/3/1 16/3/1
f 30/4/1 16/4/1 29/4/1
f 31/5/1 29/5/1 26/5/1
f 31/5/1 30/5/1 29/5/1
f 32/3/1 2/3/1 30/3/1
f 32/5/1 30/5/1 31/5/1
f 33/4/1 17/4/1 9/4/1
f 33/3/1 9/3/1 1/3/1
f 34/5/1 23/5/1 17/5/1
f 34/4/1 17/4/1 33/4/1
f 35/3/1 33/3/1 1/3/1
f 35/5/1 34/5/1 33/5/1
f 36/5/1 23/5/1 34/5/1
f 36/5/1 34/5/1 35/5/1
f 37/5/1 28/5/1 27/5/1
f 37/4/1 27/4/1 23/4/1
f 38/4/1 26/4/1 28/4/1
f 38/5/1 28/5/1 37/5/1
f 39/4/1 37/4/1 23/4/1
f 39/5/1 23/5/1 36/5/1
f 39/4/1 38/4/1 37/4/1
f 40/4/1 38/4/1 39/4/1
f 41/4/1 26/4/1 38/4/1
f 41/4/1 38/4/1 40/4/1
f 42/5/1 31/5/1 26/5/1
f 42/4/1 26/4/1 41/4/1
f 43/5/1 40/5/1 39/5/1
f 43/4/1 36/4/1 35/4/1
f 43/5/1 39/5/1 36/5/1
f 44/5/1 40/5/1 43/5/1
f 45/4/1 41/4/1 40/4/1
f 45/5/1 40/5/1 44/5/1
f 46/5/1 42/5/1 41/5/1
f 46/4/1 41/4/1 45/4/1
f 47/5/1 31/5/1 42/5/1
f 47/5/1 42/5/1 46/5/1
f 48/4/1 32/4/1 31/4/1
f 48/5/1 31/5/1 47/5/1
f 49/3/1 35/3/1 1/3/1
f 49/4/1 44/4/1 43/4/1
f 49/4/1 43/4/1 35/4/1
f 50/4/1 44/4/1 49/4/1
f 51/5/1 47/5/1 46/5/1
f 51/4/1 44/4/1 50/4/1
f 51/5/1 46/5/1 45/5/1
f 51/5/1 45/5/1 44/5/1
f 52/5/1 47/5/1 51/5/1
f 53/5/1 47/5/1 52/5/1
f 54/4/1 48/4/1 47/4/1
f 54/5/1 47/5/1 53/5/1
f 55/4/1 32/4/1 48/4/1
f 55/4/1 48/4/1 54/4/1
f 56/3/1 2/3/1 32/3/1
f 56/4/1 32/4/1 55/4/1
f 57/6/1 50/6/1 49/6/1
f 57/3/1 49/3/1 1/3/1
f 58/4/1 51/4/1 50/4/1
f 58/6/1 50/6/1 57/6/1
f 58/4/1 52/4/1 51/4/1
f 59/5/1 53/5/1 52/5/1
f 59/4/1 52/4/1 58/4/1
f 60/4/1 54/4/1 53/4/1
f 60/5/1 53/5/1 59/5/1
f 60/4/1 55/4/1 54/4/1
f 61/6/1 56/6/1 55/6/1
f 61/4/1 55/4/1 60/4/1
f 62/3/1 2/3/1 56/3/1
f 62/6/1 56/6/1 61/6/1
f 63/3/1 59/3/1 58/3/1
f 63/3/1 57/3/1 1/3/1
f 63/3/1 62/3/1 61/3/1
f 63/3/1 60/3/1 59/3/1
f 63/3/1 58/3/1 57/3/1
f 63/3/1 61/3/1 60/3/1
f 64/3/1 2/3/1 62/3/1
f 64/3/1 62/3/1 63/3/1
f 67/3/1 66/3/1 65/3/1
f 68/3/1 66/3/1 67/3/1
f 71/3/1 70/3/1 69/3/1
f 72/3/1 70/3/1 71/3/1
f 75/3/1 74/3/1 73/3/1
f 76/3/1 74/3/1 75/3/1
f 79/3/1 78/3/1 77/3/1
f 80/3/1 78/3/1 79/3/1
f 81/3/2 82/3/2 83/3/2
f 83/3/2 82/3/2 84/3/2
f 87/3/2 88/3/2 89/3/2
f 89/3/2 88/3/2 90/3/2
f 85/3/2 86/3/2 91/3/2
f 91/3/2 86/3/2 92/3/2
f 93/3/2 94/3/2 95/3/2
f 95/3/2 94/3/2 96/3/2
f 96/3/2 94/3/2 97/3/2
f 97/3/2 94/3/2 98/3/2
f 98/3/2 94/3/2 99/3/2
f 99/3/2 94/3/2 100/3/2
f 93/3/2 95/3/2 101/3/2
f 95/1/2 96/1/2 101/1/2
f 96/4/2 97/4/2 102/4/2
f 101/1/2 96/1/2 102/1/2
f 102/4/2 97/4/2 103/4/2
f 97/5/2 98/5/2 104/5/2
f 103/4/2 97/4/2 104/4/2
f 98/4/2 99/4/2 105/4/2
f 104/5/2 98/5/2 105/5/2
f 105/4/2 99/4/2 106/4/2
f 99/1/2 100/1/2 107/1/2
f 106/4/2 99/4/2 107/4/2
f 100/3/2 94/3/2 108/3/2
f 107/1/2 100/1/2 108/1/2
f 102/4/2 103/4/2 109/4/2
f 101/4/2 102/4/2 109/4/2
f 105/5/2 106/5/2 110/5/2
f 109/4/2 103/4/2 110/4/2
f 103/5/2 104/5/2 110/5/2
f 104/5/2 105/5/2 110/5/2
f 110/5/2 106/5/2 111/5/2
f 111/5/2 106/5/2 112/5/2
f 106/4/2 107/4/2 113/4/2
f 112/5/2 106/5/2 113/5/2
f 107/4/2 108/4/2 113/4/2
f 113/4/2 108/4/2 114/4/2
f 110/5/2 111/5/2 115/5/2
f 109/5/2 110/5/2 115/5/2
f 111/4/2 112/4/2 116/4/2
f 115/5/2 111/5/2 116/5/2
f 113/5/2 114/5/2 117/5/2
f 116/4/2 112/4/2 117/4/2
f 112/5/2 113/5/2 117/5/2
f 117/5/2 114/5/2 118/5/2
f 115/4/2 116/4/2 119/4/2
f 116/4/2 117/4/2 119/4/2
f 117/4/2 118/4/2 119/4/2
f 119/4/2 118/4/2 120/4/2
f 101/4/2 109/4/2 121/4/2
f 93/3/2 101/3/2 121/3/2
f 109/5/2 115/5/2 122/5/2
f 121/4/2 109/4/2 122/4/2
f 93/3/2 121/3/2 123/3/2
f 121/5/2 122/5/2 123/5/2
f 122/5/2 115/5/2 124/5/2
f 123/5/2 122/5/2 124/5/2
f 114/4/2 108/4/2 125/4/2
f 118/5/2 114/5/2 125/5/2
f 108/3/2 94/3/2 126/3/2
f 125/4/2 108/4/2 126/4/2
f 118/5/2 125/5/2 127/5/2
f 125/5/2 126/5/2 127/5/2
f 126/3/2 94/3/2 128/3/2
f 127/5/2 126/5/2 128/5/2
f 119/5/2 120/5/2 129/5/2
f 115/4/2 119/4/2 129/4/2
f 120/4/2 118/4/2 130/4/2
f 129/5/2 120/5/2 130/5/2
f 115/4/2 129/4/2 131/4/2
f 124/5/2 115/5/2 131/5/2
f 129/4/2 130/4/2 131/4/2
f 131/4/2 130/4/2 132/4/2
f 130/4/2 118/4/2 133/4/2
f 132/4/2 130/4/2 133/4/2
f 118/5/2 127/5/2 134/5/2
f 133/4/2 118/4/2 134/4/2
f 131/5/2 132/5/2 135/5/2
f 123/4/2 124/4/2 135/4/2
f 124/5/2 131/5/2 135/5/2
f 135/5/2 132/5/2 136/5/2
f 132/4/2 133/4/2 137/4/2
f 136/5/2 132/5/2 137/5/2
f 133/5/2 134/5/2 138/5/2
f 137/4/2 133/4/2 138/4/2
f 134/5/2 127/5/2 139/5/2
f 138/5/2 134/5/2 139/5/2
f 127/4/2 128/4/2 140/4/2
f 139/5/2 127/5/2 140/5/2
f 93/3/2 123/3/2 141/3/2
f 135/4/2 136/4/2 141/4/2
f 123/4/2 135/4/2 141/4/2
f 141/4/2 136/4/2 142/4/2
f 137/5/2 138/5/2 143/5/2
f 142/4/2 136/4/2 143/4/2
f 138/5/2 139/5/2 143/5/2
f 136/5/2 137/5/2 143/5/2
f 143/5/2 139/5/2 144/5/2
f 144/5/2 139/5/2 145/5/2
f 139/4/2 140/4/2 146/4/2
f 145/5/2 139/5/2 146/5/2
f 140/4/2 128/4/2 147/4/2
f 146/4/2 140/4/2 147/4/2
f 128/3/2 94/3/2 148/3/2
f 147/4/2 128/4/2 148/4/2
f 141/1/2 142/1/2 149/1/2
f 93/3/2 141/3/2 149/3/2
f 142/4/2 143/4/2 150/4/2
f 149/1/2 142/1/2 150/1/2
f 143/4/2 144/4/2 150/4/2
f 144/5/2 145/5/2 151/5/2
f 150/4/2 144/4/2 151/4/2
f 145/4/2 146/4/2 152/4/2
f 151/5/2 145/5/2 152/5/2
f 146/4/2 147/4/2 152/4/2
f 147/1/2 148/1/2 153/1/2
f 152/4/2 147/4/2 153/4/2
f 148/3/2 94/3/2 154/3/2
f 153/1/2 148/1/2 154/1/2
f 150/3/2 151/3/2 155/3/2
f 152/3/2 153/3/2 155/3/2
f 153/3/2 154/3/2 155/3/2
f 151/3/2 152/3/2 155/3/2
f 149/3/2 150/3/2 155/3/2
f 93/3/2 149/3/2 155/3/2
f 154/3/2 94/3/2 156/3/2
f 155/3/2 154/3/2 156/3/2
f 159/3/3 158/3/3 157/3/3
f 160/3/3 158/3/3 159/3/3
f 161/3/3 159/3/3 157/3/3
f 161/6/3 160/6/3 159/6/3
f 162/3/3 158/3/3 160/3/3
f 162/6/3 160/6/3 161/6/3
f 163/3/3 161/3/3 157/3/3
f 163/3/3 162/3/3 161/3/3
f 164/3/3 158/3/3 162/3/3
f 164/3/3 162/3/3 163/3/3
f 167/3/3 166/3/3 165/3/3
f 168/3/3 166/3/3 167/3/3
f 169/3/3 167/3/3 165/3/3
f 170/3/3 167/3/3 169/3/3
f 171/3/3 167/3/3 170/3/3
f 172/3/3 167/3/3 171/3/3
f 173/1/3 168/1/3 167/1/3
f 173/3/3 167/3/3 172/3/3
f 174/3/3 166/3/3 168/3/3
f 174/1/3 168/1/3 173/1/3
f 175/6/3 172/6/3 171/6/3
f 175/3/3 171/3/3 170/3/3
f 176/3/3 173/3/3 172/3/3
f 176/6/3 172/6/3 175/6/3
f 176/3/3 174/3/3 173/3/3
f 177/3/3 169/3/3 165/3/3
f 177/1/3 170/1/3 169/1/3
f 178/3/3 175/3/3 170/3/3
f 178/1/3 170/1/3 177/1/3
f 178/3/3 176/3/3 175/3/3
f 179/3/3 166/3/3 174/3/3
f 179/3/3 176/3/3 178/3/3
f 179/3/3 174/3/3 176/3/3
f 181/3/3 178/3/3 177/3/3
f 181/3/3 180/3/3 179/3/3
f 181/3/3 179/3/3 178/3/3
f 182/3/3 180/3/3 181/3/3
f 183/3/3 180/3/3 182/3/3
f 184/3/3 180/3/3 183/3/3
f 185/3/3 181/3/3 177/3/3
f 186/3/3 181/3/3 185/3/3
f 187/3/3 183/3/3 182/3/3
f 187/6/3 184/6/3 183/6/3
f 188/3/3 180/3/3 184/3/3
f 188/6/3 184/6/3 187/6/3
f 189/1/3 186/1/3 185/1/3
f 189/3/3 185/3/3 177/3/3
f 190/3/3 181/3/3 186/3/3
f 190/1/3 186/1/3 189/1/3
f 191/3/3 189/3/3 177/3/3
f 191/3/3 190/3/3 189/3/3
f 192/3/3 181/3/3 190/3/3
f 192/3/3 190/3/3 191/3/3
f 193/3/3 187/3/3 182/3/3
f 193/3/3 188/3/3 187/3/3
f 194/3/3 188/3/3 193/3/3
f 195/3/3 193/3/3 182/3/3
f 195/1/3 194/1/3 193/1/3
f 196/3/3 188/3/3 194/3/3
f 196/1/3 194/1/3 195/1/3
f 197/3/3 195/3/3 182/3/3
f 197/3/3 196/3/3 195/3/3
f 198/3/3 188/3/3 196/3/3
f 198/3/3 196/3/3 197/3/3
f 199/3/3 180/3/3 188/3/3
f 199/3/3 188/3/3 198/3/3
f 200/3/3 180/3/3 199/3/3
f 201/3/3 191/3/3 177/3/3
f 201/1/3 192/1/3 191/1/3
f 202/3/3 181/3/3 192/3/3
f 202/1/3 192/1/3 201/1/3
f 203/3/3 181/3/3 202/3/3
f 204/3/3 197/3/3 182/3/3
f 205/3/3 203/3/3 202/3/3
f 205/3/3 204/3/3 203/3/3
f 205/3/3 202/3/3 201/3/3
f 206/3/3 204/3/3 205/3/3
f 207/1/3 198/1/3 197/1/3
f 207/3/3 204/3/3 206/3/3
f 207/3/3 197/3/3 204/3/3
f 208/3/3 199/3/3 198/3/3
f 208/1/3 198/1/3 207/1/3
f 209/3/3 207/3/3 206/3/3
f 209/3/3 208/3/3 207/3/3
f 210/3/3 199/3/3 208/3/3
f 210/3/3 208/3/3 209/3/3
f 211/6/3 206/6/3 205/6/3
f 211/3/3 205/3/3 201/3/3
f 212/3/3 209/3/3 206/3/3
f 212/6/3 206/6/3 211/6/3
f 213/1/3 210/1/3 209/1/3
f 213/3/3 209/3/3 212/3/3
f 214/3/3 199/3/3 210/3/3
f 214/1/3 210/1/3 213/1/3
f 215/3/3 177/3/3 165/3/3
f 215/3/3 201/3/3 177/3/3
f 215/3/3 214/3/3 213/3/3
f 215/3/3 213/3/3 212/3/3
f 215/3/3 212/3/3 211/3/3
f 215/3/3 211/3/3 201/3/3
f 216/3/3 199/3/3 214/3/3
f 216/3/3 214/3/3 215/3/3
f 219/3/3 218/3/3 217/3/3
f 220/3/3 218/3/3 219/3/3
f 221/3/4 222/3/4 223/3/4
f 223/3/4 222/3/4 224/3/4
f 225/3/4 226/3/4 227/3/4
f 227/3/4 226/3/4 228/3/4
f 228/3/4 226/3/4 229/3/4
f 229/3/4 226/3/4 230/3/4
f 228/3/4 229/3/4 231/3/4
f 229/1/4 230/1/4 231/1/4
f 230/3/4 226/3/4 232/3/4
f 231/1/4 230/1/4 232/1/4
f 231/3/4 232/3/4 233/3/4
f 232/3/4 226/3/4 233/3/4
f 233/3/4 226/3/4 234/3/4
f 228/3/4 231/3/4 235/3/4
f 231/3/4 233/3/4 235/3/4
f 233/1/4 234/1/4 236/1/4
f 235/3/4 233/3/4 236/3/4
f 225/3/4 227/3/4 237/3/4
f 227/6/4 228/6/4 237/6/4
f 228/3/4 235/3/4 238/3/4
f 237/6/4 228/6/4 238/6/4
f 236/1/4 234/1/4 239/1/4
f 234/3/4 226/3/4 240/3/4
f 239/1/4 234/1/4 240/1/4
f 239/3/4 240/3/4 241/3/4
f 240/3/4 226/3/4 242/3/4
f 241/3/4 240/3/4 242/3/4
f 238/3/4 235/3/4 243/3/4
f 237/3/4 238/3/4 243/3/4
f 239/3/4 241/3/4 244/3/4
f 241/6/4 242/6/4 245/6/4
f 243/3/4 244/3/4 245/3/4
f 244/3/4 241/3/4 245/3/4
f 242/3/4 226/3/4 246/3/4
f 245/6/4 242/6/4 246/6/4
f 243/3/4 245/3/4 247/3/4
f 237/3/4 243/3/4 247/3/4
f 245/3/4 246/3/4 247/3/4
f 247/3/4 246/3/4 248/3/4
f 248/3/4 246/3/4 249/3/4
f 249/3/4 246/3/4 250/3/4
f 248/3/4 249/3/4 251/3/4
f 249/1/4 250/1/4 251/1/4
f 250/3/4 246/3/4 252/3/4
f 251/1/4 250/1/4 252/1/4
f 237/3/4 247/3/4 253/3/4
f 247/6/4 248/6/4 253/6/4
f 251/3/4 252/3/4 254/3/4
f 253/6/4 248/6/4 254/6/4
f 248/3/4 251/3/4 254/3/4
f 225/3/4 237/3/4 255/3/4
f 237/3/4 253/3/4 255/3/4
f 253/3/4 254/3/4 255/3/4
f 246/3/4 226/3/4 256/3/4
f 255/3/4 254/3/4 256/3/4
f 254/3/4 252/3/4 256/3/4
f 252/3/4 246/3/4 256/3/4
f 257/3/4 258/3/4 259/3/4
f 259/3/4 258/3/4 260/3/4
f 257/3/4 259/3/4 261/3/4
f 259/6/4 260/6/4 261/6/4
f 260/3/4 258/3/4 262/3/4
f 261/6/4 260/6/4 262/6/4
f 257/3/4 261/3/4 263/3/4
f 261/3/4 262/3/4 263/3/4
f 262/3/4 258/3/4 264/3/4
f 263/3/4 262/3/4 264/3/4
f 257/3/4 263/3/4 265/3/4
f 265/3/4 263/3/4 266/3/4
f 265/6/4 266/6/4 267/6/4
f 266/3/4 263/3/4 268/3/4
f 267/6/4 266/6/4 268/6/4
f 263/1/4 264/1/4 269/1/4
f 268/3/4 263/3/4 269/3/4
f 264/3/4 258/3/4 270/3/4
f 269/1/4 264/1/4 270/1/4
f 268/3/4 269/3/4 271/3/4
f 267/3/4 268/3/4 271/3/4
f 269/3/4 270/3/4 271/3/4
f 270/3/4 258/3/4 272/3/4
f 271/3/4 270/3/4 272/3/4
f 275/3/5 274/3/5 273/3/5
f 276/3/5 274/3/5 275/3/5
f 277/3/5 274/3/5 276/3/5
f 278/3/5 274/3/5 277/3/5
f 279/3/5 275/3/5 273/3/5
f 279/2/5 276/2/5 275/2/5
f 280/3/5 277/3/5 276/3/5
f 280/2/5 276/2/5 279/2/5
f 281/6/5 278/6/5 277/6/5
f 281/3/5 277/3/5 280/3/5
f 282/3/5 274/3/5 278/3/5
f 282/6/5 278/6/5 281/6/5
f 283/3/5 281/3/5 280/3/5
f 283/3/5 274/3/5 282/3/5
f 283/3/5 282/3/5 281/3/5
f 283/3/5 280/3/5 279/3/5
f 284/3/5 274/3/5 283/3/5
f 285/3/5 274/3/5 284/3/5
f 286/3/5 274/3/5 285/3/5
f 287/3/5 274/3/5 286/3/5
f 288/3/5 274/3/5 287/3/5
f 289/3/5 283/3/5 279/3/5
f 289/1/5 284/1/5 283/1/5
f 290/3/5 285/3/5 284/3/5
f 290/1/5 284/1/5 289/1/5
f 291/1/5 286/1/5 285/1/5
f 291/3/5 285/3/5 290/3/5
f 292/3/5 287/3/5 286/3/5
f 292/1/5 286/1/5 291/1/5
f 293/1/5 288/1/5 287/1/5
f 293/3/5 287/3/5 292/3/5
f 294/3/5 274/3/5 288/3/5
f 294/1/5 288/1/5 293/1/5
f 295/3/5 293/3/5 292/3/5
f 295/3/5 292/3/5 291/3/5
f 295/3/5 294/3/5 293/3/5
f 295/3/5 291/3/5 290/3/5
f 295/3/5 290/3/5 289/3/5
f 295/3/5 289/3/5 279/3/5
f 296/3/5 294/3/5 295/3/5
f 297/3/5 295/3/5 279/3/5
f 297/6/5 296/6/5 295/6/5
f 298/3/5 294/3/5 296/3/5
f 298/6/5 296/6/5 297/6/5
f 299/3/5 297/3/5 279/3/5
f 299/3/5 298/3/5 297/3/5
f 300/3/5 294/3/5 298/3/5
f 300/3/5 298/3/5 299/3/5
f 301/3/5 294/3/5 300/3/5
f 302/3/5 274/3/5 294/3/5
f 302/3/5 294/3/5 301/3/5
f 303/3/5 299/3/5 279/3/5
f 303/1/5 300/1/5 299/1/5
f 304/3/5 301/3/5 300/3/5
f 304/1/5 300/1/5 303/1/5
f 305/1/5 302/1/5 301/1/5
f 305/3/5 301/3/5 304/3/5
f 306/3/5 274/3/5 302/3/5
f 306/1/5 302/1/5 305/1/5
f 307/3/5 279/3/5 273/3/5
f 307/3/5 303/3/5 279/3/5
f 307/3/5 306/3/5 305/3/5
f 307/3/5 304/3/5 303/3/5
f 307/3/5 305/3/5 304/3/5
f 308/3/5 274/3/5 306/3/5
f 308/3/5 306/3/5 307/3/5
f 311/3/5 310/3/5 309/3/5
f 312/3/5 310/3/5 311/3/5
f 313/3/5 311/3/5 309/3/5
f 314/6/5 312/6/5 311/6/5
f 314/3/5 311/3/5 313/3/5
f 315/3/5 310/3/5 312/3/5
f 315/6/5 312/6/5 314/6/5
f 316/3/5 310/3/5 315/3/5
f 319/3/5 318/3/5 317/3/5
f 320/3/5 318/3/5 319/3/5
f 321/3/6 322/3/6 323/3/6
f 323/3/6 322/3/6 324/3/6
f 325/3/6 326/3/6 328/3/6
f 326/3/6 327/3/6 328/3/6
f 328/3/6 327/3/6 329/3/6
f 330/3/6 331/3/6 334/3/6
f 334/3/6 331/3/6 335/3/6
f 332/3/6 333/3/6 336/3/6
f 336/3/6 333/3/6 337/3/6
f 332/3/6 336/3/6 338/3/6
f 336/6/6 337/6/6 338/6/6
f 337/3/6 333/3/6 339/3/6
f 338/6/6 337/6/6 339/6/6
f 330/3/6 334/3/6 340/3/6
f 332/3/6 338/3/6 341/3/6
f 338/3/6 339/3/6 341/3/6
f 340/3/6 341/3/6 342/3/6
f 341/3/6 339/3/6 343/3/6
f 342/3/6 341/3/6 343/3/6
f 343/3/6 339/3/6 344/3/6
f 339/3/6 333/3/6 345/3/6
f 344/3/6 339/3/6 345/3/6
f 340/3/6 342/3/6 346/3/6
f 342/1/6 343/1/6 346/1/6
f 343/3/6 344/3/6 347/3/6
f 346/1/6 343/1/6 347/1/6
f 344/1/6 345/1/6 348/1/6
f 347/3/6 344/3/6 348/3/6
f 345/3/6 333/3/6 349/3/6
f 348/1/6 345/1/6 349/1/6
f 340/3/6 346/3/6 350/3/6
f 330/3/6 340/3/6 350/3/6
f 348/3/6 349/3/6 350/3/6
f 346/3/6 347/3/6 350/3/6
f 347/3/6 348/3/6 350/3/6
f 349/3/6 333/3/6 351/3/6
f 350/3/6 349/3/6 351/3/6
f 352/3/6 353/3/6 354/3/6
f 354/3/6 353/3/6 355/3/6
f 352/3/6 354/3/6 356/3/6
f 354/6/6 355/6/6 356/6/6
f 355/3/6 353/3/6 357/3/6
f 356/6/6 355/6/6 357/6/6
f 352/3/6 356/3/6 359/3/6
f 356/3/6 357/3/6 359/3/6
f 359/3/6 357/3/6 360/3/6
f 360/3/6 357/3/6 361/3/6
f 361/3/6 357/3/6 362/3/6
f 357/3/6 353/3/6 363/3/6
f 362/3/6 357/3/6 363/3/6
f 358/3/6 359/3/6 364/3/6
f 359/3/6 360/3/6 364/3/6
f 360/1/6 361/1/6 364/1/6
f 361/3/6 362/3/6 365/3/6
f 364/1/6 361/1/6 365/1/6
f 362/1/6 363/1/6 366/1/6
f 365/3/6 362/3/6 366/3/6
f 363/3/6 353/3/6 367/3/6
f 366/1/6 363/1/6 367/1/6
f 358/3/6 364/3/6 368/3/6
f 365/3/6 366/3/6 368/3/6
f 366/3/6 367/3/6 368/3/6
f 364/3/6 365/3/6 368/3/6
f 368/3/6 367/3/6 369/3/6
f 358/3/6 368/3/6 370/3/6
f 368/1/6 369/1/6 370/1/6
f 369/3/6 367/3/6 371/3/6
f 370/1/6 369/1/6 371/1/6
f 370/3/6 371/3/6 372/3/6
f 371/3/6 367/3/6 372/3/6
f 372/3/6 367/3/6 373/3/6
f 370/3/6 372/3/6 374/3/6
f 372/6/6 373/6/6 374/6/6
f 373/3/6 367/3/6 375/3/6
f 374/6/6 373/6/6 375/6/6
f 358/3/6 370/3/6 376/3/6
f 370/3/6 374/3/6 376/3/6
f 374/3/6 375/3/6 376/3/6
f 367/3/6 353/3/6 377/3/6
f 376/3/6 375/3/6 377/3/6
f 375/3/6 367/3/6 377/3/6
