# MagicaVoxel @ Ephtracy

# group
g Tree trunk

# material
mtllib Tree trunk.mtl
usemtl palette

# normals
vn -1 0 0
vn 1 0 0
vn 0 0 1
vn 0 0 -1
vn 0 -1 0
vn 0 1 0

# texcoords
vt 0.939453 0.5
vt 0.943359 0.5
vt 0.970703 0.5
vt 0.982422 0.5
vt 0.986328 0.5
vt 0.990234 0.5

# verts
v -12 0 8
v -12 0 7
v -12 0 6
v -12 0 -4
v -12 1 4
v -12 1 -1
v -12 2 7
v -12 2 6
v -12 3 4
v -12 3 -1
v -12 4 8
v -12 4 -4
v -8 0 -4
v -8 0 -5
v -8 0 -7
v -8 0 -8
v -8 1 -5
v -8 1 -6
v -8 2 -6
v -8 2 -7
v -8 4 8
v -8 4 -4
v -8 4 -6
v -8 4 -7
v -8 5 5
v -8 5 4
v -8 8 -6
v -8 8 -7
v -8 9 1
v -8 9 -0
v -8 10 -3
v -8 10 -4
v -8 11 -3
v -8 11 -4
v -8 12 -3
v -8 12 -4
v -8 17 5
v -8 17 4
v -8 17 1
v -8 17 -0
v -8 18 -3
v -8 18 -4
v -8 19 5
v -8 19 4
v -8 19 -3
v -8 19 -4
v -8 20 5
v -8 20 4
v -8 20 -3
v -8 20 -4
v -8 24 8
v -8 24 -8
v -4 0 12
v -4 0 11
v -4 0 10
v -4 0 8
v -4 1 11
v -4 1 10
v -4 1 8
v -4 6 12
v -4 6 11
v -4 13 12
v -4 13 11
v -4 16 12
v -4 16 8
v 0 0 -8
v 0 0 -12
v 0 16 -8
v 0 16 -12
v 4 0 12
v 4 0 11
v 4 0 9
v 4 0 8
v 4 0 -8
v 4 0 -12
v 4 1 12
v 4 1 11
v 4 2 9
v 4 2 8
v 4 16 12
v 4 16 8
v 4 16 -8
v 4 16 -12
v 8 0 8
v 8 0 6
v 8 0 5
v 8 0 4
v 8 1 6
v 8 1 5
v 8 6 7
v 8 6 5
v 8 12 4
v 8 12 -8
v 8 16 2
v 8 16 1
v 8 20 7
v 8 20 5
v 8 21 7
v 8 21 5
v 8 22 2
v 8 22 1
v 8 23 7
v 8 23 5
v 8 24 8
v 8 24 -8
v 12 0 4
v 12 0 3
v 12 0 2
v 12 0 1
v 12 0 -5
v 12 0 -6
v 12 0 -8
v 12 1 2
v 12 1 1
v 12 2 4
v 12 2 3
v 12 2 -2
v 12 2 -3
v 12 2 -5
v 12 2 -6
v 12 3 -2
v 12 3 -3
v 12 4 -2
v 12 4 -3
v 12 4 -5
v 12 4 -7
v 12 8 -5
v 12 8 -7
v 12 10 -2
v 12 10 -3
v 12 12 4
v 12 12 -8
v -4 0 12
v -4 6 12
v -4 13 12
v -4 16 12
v -3 0 12
v -3 2 12
v -2 0 12
v -2 2 12
v -2 6 12
v -2 13 12
v -1 4 12
v -1 13 12
v 1 0 12
v 1 1 12
v 1 4 12
v 1 13 12
v 2 0 12
v 2 1 12
v 3 0 12
v 3 1 12
v 4 0 12
v 4 1 12
v 4 16 12
v -12 0 8
v -12 4 8
v -8 0 8
v -8 2 8
v -8 4 8
v -8 24 8
v -7 0 8
v -7 2 8
v -5 0 8
v -5 1 8
v -4 0 8
v -4 1 8
v -4 16 8
v -4 19 8
v -4 23 8
v -3 19 8
v -3 23 8
v 0 19 8
v 0 22 8
v 1 19 8
v 1 22 8
v 4 0 8
v 4 2 8
v 4 16 8
v 5 0 8
v 5 1 8
v 5 5 8
v 5 18 8
v 6 0 8
v 6 1 8
v 7 5 8
v 7 18 8
v 8 0 8
v 8 24 8
v 8 0 4
v 8 12 4
v 11 0 4
v 11 2 4
v 12 0 4
v 12 2 4
v 12 12 4
v -12 0 -4
v -12 4 -4
v -8 0 -4
v -8 4 -4
v -8 0 -8
v -8 24 -8
v -5 1 -8
v -5 3 -8
v -5 4 -8
v -5 16 -8
v -3 1 -8
v -3 3 -8
v -3 4 -8
v -3 16 -8
v -2 0 -8
v -2 2 -8
v -1 0 -8
v -1 2 -8
v -1 17 -8
v -1 23 -8
v 0 0 -8
v 0 16 -8
v 0 17 -8
v 0 23 -8
v 4 0 -8
v 4 16 -8
v 5 0 -8
v 5 3 -8
v 6 7 -8
v 6 8 -8
v 6 9 -8
v 6 21 -8
v 6 22 -8
v 6 23 -8
v 7 0 -8
v 7 3 -8
v 7 7 -8
v 7 8 -8
v 7 9 -8
v 7 21 -8
v 7 22 -8
v 7 23 -8
v 8 0 -8
v 8 1 -8
v 8 12 -8
v 8 24 -8
v 9 0 -8
v 9 1 -8
v 12 0 -8
v 12 12 -8
v 0 0 -12
v 0 16 -12
v 1 0 -12
v 1 1 -12
v 2 1 -12
v 2 2 -12
v 2 9 -12
v 2 14 -12
v 3 0 -12
v 3 2 -12
v 3 9 -12
v 3 14 -12
v 4 0 -12
v 4 16 -12
v -4 0 12
v -3 0 12
v -2 0 12
v 1 0 12
v 2 0 12
v 3 0 12
v 4 0 12
v -4 0 11
v -3 0 11
v -2 0 11
v 1 0 11
v 2 0 11
v 3 0 11
v 4 0 11
v -4 0 10
v -3 0 10
v 3 0 9
v 4 0 9
v -12 0 8
v -8 0 8
v -7 0 8
v -5 0 8
v -4 0 8
v 3 0 8
v 4 0 8
v 5 0 8
v 6 0 8
v 8 0 8
v -12 0 7
v -11 0 7
v -8 0 7
v -7 0 7
v -5 0 7
v -4 0 7
v 5 0 7
v 6 0 7
v -12 0 6
v -11 0 6
v 7 0 6
v 8 0 6
v 7 0 5
v 8 0 5
v 8 0 4
v 11 0 4
v 12 0 4
v 11 0 3
v 12 0 3
v 11 0 2
v 12 0 2
v 11 0 1
v 12 0 1
v -12 0 -4
v -8 0 -4
v -8 0 -5
v -7 0 -5
v 11 0 -5
v 12 0 -5
v 11 0 -6
v 12 0 -6
v -8 0 -7
v -7 0 -7
v -2 0 -7
v -1 0 -7
v 5 0 -7
v 7 0 -7
v 8 0 -7
v 9 0 -7
v -8 0 -8
v -2 0 -8
v -1 0 -8
v 0 0 -8
v 4 0 -8
v 5 0 -8
v 7 0 -8
v 8 0 -8
v 9 0 -8
v 12 0 -8
v 1 0 -11
v 3 0 -11
v 0 0 -12
v 1 0 -12
v 3 0 -12
v 4 0 -12
v -12 4 8
v -8 4 8
v -12 4 -4
v -8 4 -4
v 8 12 4
v 12 12 4
v 8 12 -8
v 12 12 -8
v -4 16 12
v 4 16 12
v -4 16 8
v 4 16 8
v 0 16 -8
v 4 16 -8
v 0 16 -12
v 4 16 -12
v -8 24 8
v 8 24 8
v -6 24 6
v -5 24 6
v 0 24 6
v 1 24 6
v 5 24 6
v 6 24 6
v -6 24 5
v -5 24 5
v -4 24 5
v 0 24 5
v 1 24 5
v 4 24 5
v 5 24 5
v 6 24 5
v -5 24 4
v -4 24 4
v -3 24 4
v 3 24 4
v 4 24 4
v 5 24 4
v -6 24 3
v -5 24 3
v -4 24 3
v -3 24 3
v 3 24 3
v 4 24 3
v -6 24 2
v -5 24 2
v -2 24 2
v 2 24 2
v 5 24 2
v 6 24 2
v 5 24 1
v 6 24 1
v -2 24 -2
v 2 24 -2
v -4 24 -3
v -3 24 -3
v 3 24 -3
v 4 24 -3
v -5 24 -4
v -4 24 -4
v -3 24 -4
v 3 24 -4
v 4 24 -4
v 5 24 -4
v -6 24 -5
v -5 24 -5
v -4 24 -5
v -1 24 -5
v 0 24 -5
v 4 24 -5
v 5 24 -5
v 6 24 -5
v -6 24 -6
v -5 24 -6
v -1 24 -6
v 0 24 -6
v 5 24 -6
v 6 24 -6
v -8 24 -8
v 8 24 -8

# faces
f 5/3/1 4/3/1 3/3/1
f 6/3/1 4/3/1 5/3/1
f 7/3/1 2/3/1 1/3/1
f 7/2/1 3/2/1 2/2/1
f 8/3/1 5/3/1 3/3/1
f 8/2/1 3/2/1 7/2/1
f 9/6/1 6/6/1 5/6/1
f 9/3/1 5/3/1 8/3/1
f 9/3/1 8/3/1 7/3/1
f 10/3/1 4/3/1 6/3/1
f 10/6/1 6/6/1 9/6/1
f 11/3/1 9/3/1 7/3/1
f 11/3/1 7/3/1 1/3/1
f 11/3/1 10/3/1 9/3/1
f 12/3/1 4/3/1 10/3/1
f 12/3/1 10/3/1 11/3/1
f 17/3/1 14/3/1 13/3/1
f 17/2/1 15/2/1 14/2/1
f 18/2/1 15/2/1 17/2/1
f 19/3/1 18/3/1 17/3/1
f 19/2/1 15/2/1 18/2/1
f 20/3/1 16/3/1 15/3/1
f 20/2/1 15/2/1 19/2/1
f 22/3/1 19/3/1 17/3/1
f 22/3/1 17/3/1 13/3/1
f 22/3/1 20/3/1 19/3/1
f 23/3/1 20/3/1 22/3/1
f 24/3/1 16/3/1 20/3/1
f 24/3/1 20/3/1 23/3/1
f 25/3/1 23/3/1 22/3/1
f 25/3/1 22/3/1 21/3/1
f 26/3/1 23/3/1 25/3/1
f 27/6/1 24/6/1 23/6/1
f 27/3/1 23/3/1 26/3/1
f 28/3/1 16/3/1 24/3/1
f 28/6/1 24/6/1 27/6/1
f 29/3/1 27/3/1 26/3/1
f 29/3/1 28/3/1 27/3/1
f 30/3/1 28/3/1 29/3/1
f 31/3/1 28/3/1 30/3/1
f 32/3/1 28/3/1 31/3/1
f 33/3/1 31/3/1 30/3/1
f 33/1/1 32/1/1 31/1/1
f 34/3/1 28/3/1 32/3/1
f 34/1/1 32/1/1 33/1/1
f 35/3/1 33/3/1 30/3/1
f 35/3/1 34/3/1 33/3/1
f 36/3/1 28/3/1 34/3/1
f 36/3/1 34/3/1 35/3/1
f 37/1/1 26/1/1 25/1/1
f 37/3/1 25/3/1 21/3/1
f 38/3/1 29/3/1 26/3/1
f 38/1/1 26/1/1 37/1/1
f 39/6/1 30/6/1 29/6/1
f 39/3/1 29/3/1 38/3/1
f 40/3/1 35/3/1 30/3/1
f 40/6/1 30/6/1 39/6/1
f 41/1/1 36/1/1 35/1/1
f 41/3/1 35/3/1 40/3/1
f 41/3/1 40/3/1 39/3/1
f 41/3/1 39/3/1 38/3/1
f 41/3/1 38/3/1 37/3/1
f 42/3/1 28/3/1 36/3/1
f 42/1/1 36/1/1 41/1/1
f 43/3/1 41/3/1 37/3/1
f 43/3/1 37/3/1 21/3/1
f 43/3/1 42/3/1 41/3/1
f 44/3/1 42/3/1 43/3/1
f 45/3/1 42/3/1 44/3/1
f 46/3/1 28/3/1 42/3/1
f 46/3/1 42/3/1 45/3/1
f 47/3/1 43/3/1 21/3/1
f 47/1/1 44/1/1 43/1/1
f 48/3/1 45/3/1 44/3/1
f 48/1/1 44/1/1 47/1/1
f 49/1/1 46/1/1 45/1/1
f 49/3/1 45/3/1 48/3/1
f 50/3/1 28/3/1 46/3/1
f 50/1/1 46/1/1 49/1/1
f 51/3/1 47/3/1 21/3/1
f 51/3/1 49/3/1 48/3/1
f 51/3/1 50/3/1 49/3/1
f 51/3/1 48/3/1 47/3/1
f 52/3/1 16/3/1 28/3/1
f 52/3/1 50/3/1 51/3/1
f 52/3/1 28/3/1 50/3/1
f 57/3/1 54/3/1 53/3/1
f 57/2/1 55/2/1 54/2/1
f 58/3/1 56/3/1 55/3/1
f 58/2/1 55/2/1 57/2/1
f 59/3/1 56/3/1 58/3/1
f 60/3/1 57/3/1 53/3/1
f 60/3/1 58/3/1 57/3/1
f 60/3/1 59/3/1 58/3/1
f 61/3/1 59/3/1 60/3/1
f 62/6/1 61/6/1 60/6/1
f 63/3/1 59/3/1 61/3/1
f 63/6/1 61/6/1 62/6/1
f 64/3/1 63/3/1 62/3/1
f 65/3/1 59/3/1 63/3/1
f 65/3/1 63/3/1 64/3/1
f 68/3/1 67/3/1 66/3/1
f 69/3/1 67/3/1 68/3/1
f 70/2/2 71/2/2 76/2/2
f 71/3/2 72/3/2 77/3/2
f 76/2/2 71/2/2 77/2/2
f 72/2/2 73/2/2 78/2/2
f 77/3/2 72/3/2 78/3/2
f 76/3/2 77/3/2 78/3/2
f 78/2/2 73/2/2 79/2/2
f 76/3/2 78/3/2 80/3/2
f 78/3/2 79/3/2 80/3/2
f 80/3/2 79/3/2 81/3/2
f 74/3/2 75/3/2 82/3/2
f 82/3/2 75/3/2 83/3/2
f 84/3/2 85/3/2 88/3/2
f 85/2/2 86/2/2 88/2/2
f 86/3/2 87/3/2 89/3/2
f 88/2/2 86/2/2 89/2/2
f 84/3/2 88/3/2 90/3/2
f 88/3/2 89/3/2 90/3/2
f 89/3/2 87/3/2 91/3/2
f 90/3/2 89/3/2 91/3/2
f 91/3/2 87/3/2 92/3/2
f 92/3/2 93/3/2 94/3/2
f 94/3/2 93/3/2 95/3/2
f 84/3/2 90/3/2 96/3/2
f 90/1/2 91/1/2 96/1/2
f 91/3/2 92/3/2 97/3/2
f 96/1/2 91/1/2 97/1/2
f 92/3/2 94/3/2 97/3/2
f 84/3/2 96/3/2 98/3/2
f 96/3/2 97/3/2 98/3/2
f 97/3/2 94/3/2 99/3/2
f 98/3/2 97/3/2 99/3/2
f 94/6/2 95/6/2 100/6/2
f 99/3/2 94/3/2 100/3/2
f 95/3/2 93/3/2 101/3/2
f 100/6/2 95/6/2 101/6/2
f 98/1/2 99/1/2 102/1/2
f 84/3/2 98/3/2 102/3/2
f 99/3/2 100/3/2 103/3/2
f 102/1/2 99/1/2 103/1/2
f 100/3/2 101/3/2 103/3/2
f 84/3/2 102/3/2 104/3/2
f 102/3/2 103/3/2 104/3/2
f 103/3/2 101/3/2 105/3/2
f 104/3/2 103/3/2 105/3/2
f 101/3/2 93/3/2 105/3/2
f 107/3/2 108/3/2 113/3/2
f 108/2/2 109/2/2 113/2/2
f 109/3/2 110/3/2 114/3/2
f 113/2/2 109/2/2 114/2/2
f 106/2/2 107/2/2 115/2/2
f 107/3/2 113/3/2 116/3/2
f 115/2/2 107/2/2 116/2/2
f 113/3/2 114/3/2 116/3/2
f 114/3/2 110/3/2 117/3/2
f 116/3/2 114/3/2 117/3/2
f 117/3/2 110/3/2 118/3/2
f 110/2/2 111/2/2 119/2/2
f 118/3/2 110/3/2 119/3/2
f 111/3/2 112/3/2 120/3/2
f 119/2/2 111/2/2 120/2/2
f 115/3/2 116/3/2 121/3/2
f 117/1/2 118/1/2 121/1/2
f 116/3/2 117/3/2 121/3/2
f 118/3/2 119/3/2 122/3/2
f 121/1/2 118/1/2 122/1/2
f 119/3/2 120/3/2 122/3/2
f 115/3/2 121/3/2 123/3/2
f 121/3/2 122/3/2 123/3/2
f 122/3/2 120/3/2 124/3/2
f 123/3/2 122/3/2 124/3/2
f 124/3/2 120/3/2 125/3/2
f 120/3/2 112/3/2 126/3/2
f 125/3/2 120/3/2 126/3/2
f 124/3/2 125/3/2 127/3/2
f 125/6/2 126/6/2 127/6/2
f 126/3/2 112/3/2 128/3/2
f 127/6/2 126/6/2 128/6/2
f 115/3/2 123/3/2 129/3/2
f 123/1/2 124/1/2 129/1/2
f 124/3/2 127/3/2 130/3/2
f 129/1/2 124/1/2 130/1/2
f 127/3/2 128/3/2 130/3/2
f 115/3/2 129/3/2 131/3/2
f 129/3/2 130/3/2 131/3/2
f 130/3/2 128/3/2 132/3/2
f 131/3/2 130/3/2 132/3/2
f 128/3/2 112/3/2 132/3/2
f 137/3/3 134/3/3 133/3/3
f 138/3/3 134/3/3 137/3/3
f 139/2/3 138/2/3 137/2/3
f 140/3/3 134/3/3 138/3/3
f 140/2/3 138/2/3 139/2/3
f 141/6/3 135/6/3 134/6/3
f 141/3/3 134/3/3 140/3/3
f 142/3/3 136/3/3 135/3/3
f 142/6/3 135/6/3 141/6/3
f 143/3/3 141/3/3 140/3/3
f 143/3/3 140/3/3 139/3/3
f 143/3/3 142/3/3 141/3/3
f 144/3/3 136/3/3 142/3/3
f 144/3/3 142/3/3 143/3/3
f 145/3/3 143/3/3 139/3/3
f 146/3/3 143/3/3 145/3/3
f 147/1/3 144/1/3 143/1/3
f 147/3/3 143/3/3 146/3/3
f 148/3/3 136/3/3 144/3/3
f 148/1/3 144/1/3 147/1/3
f 149/2/3 146/2/3 145/2/3
f 150/3/3 147/3/3 146/3/3
f 150/2/3 146/2/3 149/2/3
f 150/3/3 148/3/3 147/3/3
f 151/3/3 150/3/3 149/3/3
f 152/3/3 148/3/3 150/3/3
f 152/3/3 150/3/3 151/3/3
f 153/2/3 152/2/3 151/2/3
f 154/3/3 148/3/3 152/3/3
f 154/2/3 152/2/3 153/2/3
f 155/3/3 136/3/3 148/3/3
f 155/3/3 148/3/3 154/3/3
f 158/3/3 157/3/3 156/3/3
f 159/3/3 157/3/3 158/3/3
f 160/3/3 157/3/3 159/3/3
f 162/2/3 159/2/3 158/2/3
f 163/3/3 161/3/3 160/3/3
f 163/2/3 159/2/3 162/2/3
f 163/3/3 160/3/3 159/3/3
f 164/3/3 163/3/3 162/3/3
f 165/3/3 163/3/3 164/3/3
f 166/2/3 165/2/3 164/2/3
f 167/3/3 163/3/3 165/3/3
f 167/2/3 165/2/3 166/2/3
f 168/3/3 161/3/3 163/3/3
f 168/3/3 163/3/3 167/3/3
f 169/3/3 161/3/3 168/3/3
f 170/3/3 161/3/3 169/3/3
f 171/6/3 170/6/3 169/6/3
f 171/3/3 169/3/3 168/3/3
f 172/3/3 161/3/3 170/3/3
f 172/6/3 170/6/3 171/6/3
f 173/3/3 171/3/3 168/3/3
f 173/3/3 172/3/3 171/3/3
f 174/3/3 172/3/3 173/3/3
f 175/3/3 173/3/3 168/3/3
f 175/1/3 174/1/3 173/1/3
f 176/3/3 172/3/3 174/3/3
f 176/1/3 174/1/3 175/1/3
f 179/3/3 175/3/3 168/3/3
f 179/3/3 176/3/3 175/3/3
f 180/3/3 178/3/3 177/3/3
f 180/3/3 179/3/3 178/3/3
f 181/3/3 179/3/3 180/3/3
f 182/3/3 179/3/3 181/3/3
f 183/3/3 176/3/3 179/3/3
f 183/3/3 179/3/3 182/3/3
f 184/2/3 181/2/3 180/2/3
f 185/3/3 182/3/3 181/3/3
f 185/2/3 181/2/3 184/2/3
f 186/6/3 183/6/3 182/6/3
f 186/3/3 182/3/3 185/3/3
f 186/3/3 185/3/3 184/3/3
f 187/3/3 176/3/3 183/3/3
f 187/6/3 183/6/3 186/6/3
f 188/3/3 186/3/3 184/3/3
f 188/3/3 187/3/3 186/3/3
f 189/3/3 161/3/3 172/3/3
f 189/3/3 187/3/3 188/3/3
f 189/3/3 172/3/3 176/3/3
f 189/3/3 176/3/3 187/3/3
f 192/3/3 191/3/3 190/3/3
f 193/3/3 191/3/3 192/3/3
f 194/2/3 193/2/3 192/2/3
f 195/3/3 191/3/3 193/3/3
f 195/2/3 193/2/3 194/2/3
f 196/3/3 191/3/3 195/3/3
f 197/3/4 198/3/4 199/3/4
f 199/3/4 198/3/4 200/3/4
f 201/3/4 202/3/4 203/3/4
f 203/3/4 202/3/4 204/3/4
f 204/3/4 202/3/4 205/3/4
f 205/3/4 202/3/4 206/3/4
f 201/3/4 203/3/4 207/3/4
f 203/1/4 204/1/4 207/1/4
f 204/3/4 205/3/4 208/3/4
f 207/1/4 204/1/4 208/1/4
f 205/1/4 206/1/4 209/1/4
f 208/3/4 205/3/4 209/3/4
f 206/3/4 202/3/4 210/3/4
f 209/1/4 206/1/4 210/1/4
f 208/3/4 209/3/4 211/3/4
f 207/3/4 208/3/4 211/3/4
f 209/3/4 210/3/4 211/3/4
f 201/3/4 207/3/4 211/3/4
f 211/3/4 210/3/4 212/3/4
f 211/2/4 212/2/4 213/2/4
f 212/3/4 210/3/4 214/3/4
f 213/2/4 212/2/4 214/2/4
f 210/3/4 202/3/4 215/3/4
f 214/3/4 210/3/4 215/3/4
f 215/3/4 202/3/4 216/3/4
f 213/3/4 214/3/4 217/3/4
f 214/3/4 215/3/4 217/3/4
f 217/3/4 215/3/4 218/3/4
f 215/6/4 216/6/4 219/6/4
f 218/3/4 215/3/4 219/3/4
f 216/3/4 202/3/4 220/3/4
f 219/6/4 216/6/4 220/6/4
f 218/3/4 219/3/4 222/3/4
f 219/3/4 220/3/4 222/3/4
f 221/3/4 222/3/4 223/3/4
f 223/3/4 222/3/4 224/3/4
f 224/3/4 222/3/4 225/3/4
f 225/3/4 222/3/4 226/3/4
f 226/3/4 222/3/4 227/3/4
f 222/3/4 220/3/4 228/3/4
f 227/3/4 222/3/4 228/3/4
f 228/3/4 220/3/4 229/3/4
f 220/3/4 202/3/4 230/3/4
f 229/3/4 220/3/4 230/3/4
f 223/2/4 224/2/4 231/2/4
f 224/3/4 225/3/4 232/3/4
f 231/2/4 224/2/4 232/2/4
f 225/1/4 226/1/4 233/1/4
f 232/3/4 225/3/4 233/3/4
f 226/3/4 227/3/4 234/3/4
f 233/1/4 226/1/4 234/1/4
f 227/1/4 228/1/4 235/1/4
f 234/3/4 227/3/4 235/3/4
f 228/3/4 229/3/4 236/3/4
f 235/1/4 228/1/4 236/1/4
f 229/1/4 230/1/4 237/1/4
f 236/3/4 229/3/4 237/3/4
f 230/3/4 202/3/4 238/3/4
f 237/1/4 230/1/4 238/1/4
f 234/3/4 235/3/4 239/3/4
f 232/3/4 233/3/4 239/3/4
f 237/3/4 238/3/4 239/3/4
f 235/3/4 236/3/4 239/3/4
f 233/3/4 234/3/4 239/3/4
f 231/3/4 232/3/4 239/3/4
f 236/3/4 237/3/4 239/3/4
f 239/3/4 238/3/4 240/3/4
f 240/3/4 238/3/4 241/3/4
f 238/3/4 202/3/4 242/3/4
f 241/3/4 238/3/4 242/3/4
f 239/2/4 240/2/4 243/2/4
f 240/3/4 241/3/4 244/3/4
f 243/2/4 240/2/4 244/2/4
f 243/3/4 244/3/4 245/3/4
f 244/3/4 241/3/4 246/3/4
f 245/3/4 244/3/4 246/3/4
f 247/3/4 248/3/4 249/3/4
f 249/3/4 248/3/4 250/3/4
f 249/2/4 250/2/4 251/2/4
f 250/3/4 248/3/4 251/3/4
f 251/3/4 248/3/4 252/3/4
f 252/3/4 248/3/4 253/3/4
f 253/3/4 248/3/4 254/3/4
f 249/2/4 251/2/4 255/2/4
f 251/2/4 252/2/4 255/2/4
f 252/3/4 253/3/4 256/3/4
f 255/2/4 252/2/4 256/2/4
f 253/6/4 254/6/4 257/6/4
f 256/3/4 253/3/4 257/3/4
f 254/3/4 248/3/4 258/3/4
f 257/6/4 254/6/4 258/6/4
f 256/3/4 257/3/4 259/3/4
f 255/3/4 256/3/4 259/3/4
f 257/3/4 258/3/4 259/3/4
f 258/3/4 248/3/4 260/3/4
f 259/3/4 258/3/4 260/3/4
f 268/3/5 262/3/5 261/3/5
f 269/2/5 263/2/5 262/2/5
f 269/3/5 262/3/5 268/3/5
f 270/3/5 264/3/5 263/3/5
f 270/2/5 263/2/5 269/2/5
f 271/2/5 265/2/5 264/2/5
f 271/3/5 264/3/5 270/3/5
f 272/3/5 266/3/5 265/3/5
f 272/2/5 265/2/5 271/2/5
f 273/2/5 267/2/5 266/2/5
f 273/3/5 266/3/5 272/3/5
f 274/2/5 267/2/5 273/2/5
f 275/2/5 269/2/5 268/2/5
f 276/3/5 272/3/5 271/3/5
f 276/2/5 269/2/5 275/2/5
f 276/3/5 270/3/5 269/3/5
f 276/3/5 274/3/5 273/3/5
f 276/3/5 273/3/5 272/3/5
f 276/3/5 271/3/5 270/3/5
f 277/3/5 276/3/5 275/3/5
f 277/3/5 274/3/5 276/3/5
f 278/3/5 274/3/5 277/3/5
f 283/3/5 277/3/5 275/3/5
f 284/2/5 278/2/5 277/2/5
f 284/3/5 277/3/5 283/3/5
f 285/2/5 278/2/5 284/2/5
f 289/3/5 280/3/5 279/3/5
f 290/3/5 280/3/5 289/3/5
f 291/2/5 281/2/5 280/2/5
f 291/3/5 280/3/5 290/3/5
f 292/3/5 282/3/5 281/3/5
f 292/2/5 281/2/5 291/2/5
f 293/2/5 283/2/5 282/2/5
f 293/3/5 282/3/5 292/3/5
f 294/3/5 285/3/5 284/3/5
f 294/2/5 283/2/5 293/2/5
f 294/3/5 284/3/5 283/3/5
f 294/3/5 286/3/5 285/3/5
f 295/2/5 287/2/5 286/2/5
f 295/3/5 286/3/5 294/3/5
f 296/3/5 288/3/5 287/3/5
f 296/2/5 287/2/5 295/2/5
f 297/2/5 290/2/5 289/2/5
f 298/3/5 293/3/5 292/3/5
f 298/2/5 290/2/5 297/2/5
f 298/3/5 291/3/5 290/3/5
f 298/3/5 296/3/5 295/3/5
f 298/3/5 294/3/5 293/3/5
f 298/3/5 292/3/5 291/3/5
f 298/3/5 295/3/5 294/3/5
f 299/3/5 288/3/5 296/3/5
f 299/3/5 296/3/5 298/3/5
f 300/3/5 288/3/5 299/3/5
f 301/3/5 298/3/5 297/3/5
f 301/3/5 299/3/5 298/3/5
f 301/2/5 300/2/5 299/2/5
f 302/2/5 300/2/5 301/2/5
f 303/3/5 302/3/5 301/3/5
f 306/3/5 304/3/5 303/3/5
f 306/2/5 305/2/5 304/2/5
f 307/2/5 305/2/5 306/2/5
f 308/3/5 306/3/5 303/3/5
f 308/3/5 307/3/5 306/3/5
f 309/3/5 307/3/5 308/3/5
f 310/3/5 308/3/5 303/3/5
f 310/2/5 309/2/5 308/2/5
f 311/2/5 309/2/5 310/2/5
f 312/3/5 303/3/5 301/3/5
f 312/3/5 301/3/5 297/3/5
f 312/3/5 311/3/5 310/3/5
f 312/3/5 310/3/5 303/3/5
f 313/3/5 311/3/5 312/3/5
f 314/3/5 311/3/5 313/3/5
f 315/3/5 311/3/5 314/3/5
f 316/3/5 311/3/5 315/3/5
f 317/3/5 311/3/5 316/3/5
f 318/3/5 316/3/5 315/3/5
f 318/2/5 317/2/5 316/2/5
f 319/2/5 317/2/5 318/2/5
f 320/2/5 315/2/5 314/2/5
f 321/3/5 318/3/5 315/3/5
f 321/2/5 315/2/5 320/2/5
f 321/3/5 319/3/5 318/3/5
f 322/3/5 319/3/5 321/3/5
f 323/3/5 319/3/5 322/3/5
f 324/3/5 319/3/5 323/3/5
f 325/3/5 319/3/5 324/3/5
f 326/3/5 319/3/5 325/3/5
f 327/3/5 319/3/5 326/3/5
f 328/3/5 321/3/5 320/3/5
f 328/3/5 322/3/5 321/3/5
f 329/2/5 323/2/5 322/2/5
f 329/3/5 322/3/5 328/3/5
f 330/3/5 324/3/5 323/3/5
f 330/2/5 323/2/5 329/2/5
f 331/3/5 324/3/5 330/3/5
f 332/3/5 324/3/5 331/3/5
f 333/2/5 325/2/5 324/2/5
f 333/3/5 324/3/5 332/3/5
f 334/3/5 326/3/5 325/3/5
f 334/2/5 325/2/5 333/2/5
f 335/2/5 327/2/5 326/2/5
f 335/3/5 326/3/5 334/3/5
f 336/3/5 319/3/5 327/3/5
f 336/2/5 327/2/5 335/2/5
f 337/3/5 319/3/5 336/3/5
f 338/3/5 332/3/5 331/3/5
f 339/3/5 332/3/5 338/3/5
f 340/3/5 338/3/5 331/3/5
f 341/2/5 339/2/5 338/2/5
f 341/3/5 338/3/5 340/3/5
f 342/3/5 332/3/5 339/3/5
f 342/2/5 339/2/5 341/2/5
f 343/3/5 332/3/5 342/3/5
f 344/3/6 345/3/6 346/3/6
f 346/3/6 345/3/6 347/3/6
f 348/3/6 349/3/6 350/3/6
f 350/3/6 349/3/6 351/3/6
f 352/3/6 353/3/6 354/3/6
f 354/3/6 353/3/6 355/3/6
f 356/3/6 357/3/6 358/3/6
f 358/3/6 357/3/6 359/3/6
f 360/3/6 361/3/6 362/3/6
f 362/3/6 361/3/6 363/3/6
f 363/3/6 361/3/6 364/3/6
f 364/3/6 361/3/6 365/3/6
f 365/3/6 361/3/6 366/3/6
f 366/3/6 361/3/6 367/3/6
f 360/3/6 362/3/6 368/3/6
f 362/1/6 363/1/6 368/1/6
f 363/4/6 364/4/6 369/4/6
f 368/1/6 363/1/6 369/1/6
f 369/4/6 364/4/6 370/4/6
f 364/5/6 365/5/6 371/5/6
f 370/4/6 364/4/6 371/4/6
f 365/4/6 366/4/6 372/4/6
f 371/5/6 365/5/6 372/5/6
f 372/4/6 366/4/6 373/4/6
f 366/1/6 367/1/6 374/1/6
f 373/4/6 366/4/6 374/4/6
f 367/3/6 361/3/6 375/3/6
f 374/1/6 367/1/6 375/1/6
f 369/4/6 370/4/6 376/4/6
f 368/4/6 369/4/6 376/4/6
f 372/5/6 373/5/6 377/5/6
f 376/4/6 370/4/6 377/4/6
f 370/5/6 371/5/6 377/5/6
f 371/5/6 372/5/6 377/5/6
f 377/5/6 373/5/6 378/5/6
f 378/5/6 373/5/6 379/5/6
f 373/4/6 374/4/6 380/4/6
f 379/5/6 373/5/6 380/5/6
f 374/4/6 375/4/6 380/4/6
f 380/4/6 375/4/6 381/4/6
f 368/4/6 376/4/6 382/4/6
f 360/3/6 368/3/6 382/3/6
f 377/5/6 378/5/6 383/5/6
f 382/4/6 376/4/6 383/4/6
f 376/5/6 377/5/6 383/5/6
f 383/5/6 378/5/6 384/5/6
f 378/4/6 379/4/6 385/4/6
f 384/5/6 378/5/6 385/5/6
f 380/5/6 381/5/6 386/5/6
f 385/4/6 379/4/6 386/4/6
f 379/5/6 380/5/6 386/5/6
f 386/5/6 381/5/6 387/5/6
f 383/5/6 384/5/6 388/5/6
f 360/3/6 382/3/6 388/3/6
f 382/5/6 383/5/6 388/5/6
f 388/5/6 384/5/6 389/5/6
f 384/4/6 385/4/6 390/4/6
f 386/4/6 387/4/6 390/4/6
f 385/4/6 386/4/6 390/4/6
f 390/4/6 387/4/6 391/4/6
f 387/5/6 381/5/6 392/5/6
f 381/4/6 375/4/6 392/4/6
f 375/3/6 361/3/6 393/3/6
f 392/4/6 375/4/6 393/4/6
f 387/5/6 392/5/6 394/5/6
f 392/5/6 393/5/6 394/5/6
f 393/3/6 361/3/6 395/3/6
f 394/5/6 393/5/6 395/5/6
f 390/5/6 391/5/6 396/5/6
f 384/4/6 390/4/6 396/4/6
f 391/4/6 387/4/6 397/4/6
f 396/5/6 391/5/6 397/5/6
f 384/4/6 396/4/6 398/4/6
f 389/5/6 384/5/6 398/5/6
f 396/4/6 397/4/6 398/4/6
f 398/4/6 397/4/6 399/4/6
f 397/4/6 387/4/6 400/4/6
f 399/4/6 397/4/6 400/4/6
f 387/5/6 394/5/6 401/5/6
f 400/4/6 387/4/6 401/4/6
f 398/5/6 399/5/6 402/5/6
f 388/4/6 389/4/6 402/4/6
f 389/5/6 398/5/6 402/5/6
f 402/5/6 399/5/6 403/5/6
f 399/4/6 400/4/6 404/4/6
f 403/5/6 399/5/6 404/5/6
f 400/5/6 401/5/6 405/5/6
f 404/4/6 400/4/6 405/4/6
f 401/5/6 394/5/6 406/5/6
f 405/5/6 401/5/6 406/5/6
f 394/4/6 395/4/6 407/4/6
f 406/5/6 394/5/6 407/5/6
f 402/4/6 403/4/6 408/4/6
f 360/3/6 388/3/6 408/3/6
f 388/4/6 402/4/6 408/4/6
f 408/4/6 403/4/6 409/4/6
f 404/5/6 405/5/6 410/5/6
f 409/4/6 403/4/6 410/4/6
f 405/5/6 406/5/6 410/5/6
f 403/5/6 404/5/6 410/5/6
f 410/5/6 406/5/6 411/5/6
f 411/5/6 406/5/6 412/5/6
f 406/4/6 407/4/6 413/4/6
f 412/5/6 406/5/6 413/5/6
f 407/4/6 395/4/6 414/4/6
f 413/4/6 407/4/6 414/4/6
f 395/3/6 361/3/6 415/3/6
f 414/4/6 395/4/6 415/4/6
f 408/1/6 409/1/6 416/1/6
f 360/3/6 408/3/6 416/3/6
f 409/4/6 410/4/6 417/4/6
f 416/1/6 409/1/6 417/1/6
f 410/4/6 411/4/6 417/4/6
f 411/5/6 412/5/6 418/5/6
f 417/4/6 411/4/6 418/4/6
f 413/4/6 414/4/6 419/4/6
f 418/5/6 412/5/6 419/5/6
f 412/4/6 413/4/6 419/4/6
f 414/1/6 415/1/6 420/1/6
f 419/4/6 414/4/6 420/4/6
f 415/3/6 361/3/6 421/3/6
f 420/1/6 415/1/6 421/1/6
f 419/3/6 420/3/6 422/3/6
f 417/3/6 418/3/6 422/3/6
f 420/3/6 421/3/6 422/3/6
f 416/3/6 417/3/6 422/3/6
f 360/3/6 416/3/6 422/3/6
f 418/3/6 419/3/6 422/3/6
f 421/3/6 361/3/6 423/3/6
f 422/3/6 421/3/6 423/3/6
