# MagicaVoxel @ Ephtracy

# group
g AK47

# material
mtllib AK47.mtl
usemtl palette

# normals
vn -1 0 0
vn 1 0 0
vn 0 0 1
vn 0 0 -1
vn 0 -1 0
vn 0 1 0

# texcoords
vt 0.845703 0.5
vt 0.970703 0.5

# verts
v -18 6 0.5
v -18 6 -0.5
v -18 7 0.5
v -18 7 -0.5
v -17 7 0.5
v -17 7 -0.5
v -17 8 0.5
v -17 8 -0.5
v -11 7 0.5
v -11 7 -0.5
v -11 8 0.5
v -11 8 -0.5
v -10 8 0.5
v -10 8 -0.5
v -10 9 0.5
v -10 9 -0.5
v -8 6 1.5
v -8 6 0.5
v -8 6 -0.5
v -8 6 -1.5
v -8 7 0.5
v -8 7 -0.5
v -8 8 1.5
v -8 8 0.5
v -8 8 -0.5
v -8 8 -1.5
v -3 8 1.5
v -3 8 0.5
v -3 8 -0.5
v -3 8 -1.5
v -3 9 1.5
v -3 9 0.5
v -3 9 -0.5
v -3 9 -1.5
v -3 10 0.5
v -3 10 -0.5
v -2 0 0.5
v -2 0 -0.5
v -2 1 0.5
v -2 1 -0.5
v -1 1 0.5
v -1 1 -0.5
v -1 3 0.5
v -1 3 -0.5
v 0 2 1.5
v 0 2 0.5
v 0 3 1.5
v 0 3 0.5
v 0 3 -0.5
v 0 6 0.5
v 0 6 -0.5
v 1 3 1.5
v 1 3 0.5
v 1 4 -0.5
v 1 4 -1.5
v 1 6 1.5
v 1 6 0.5
v 1 6 -0.5
v 1 6 -1.5
v 4 4 0.5
v 4 4 -0.5
v 4 5 0.5
v 4 5 -0.5
v 5 5 0.5
v 5 5 -0.5
v 5 6 0.5
v 5 6 -0.5
v 7 3 0.5
v 7 3 -0.5
v 7 5 0.5
v 7 5 -0.5
v 8 2 0.5
v 8 2 -0.5
v 8 3 0.5
v 8 3 -0.5
v 12 5 0.5
v 12 5 -0.5
v 12 6 0.5
v 12 6 -0.5
v 14 4 0.5
v 14 4 -0.5
v 14 5 0.5
v 14 5 -0.5
v -16 7 0.5
v -16 7 -0.5
v -16 8 0.5
v -16 8 -0.5
v -10 7 0.5
v -10 7 -0.5
v -10 8 0.5
v -10 8 -0.5
v 1 0 0.5
v 1 0 -0.5
v 1 1 0.5
v 1 1 -0.5
v 1 2 1.5
v 1 2 0.5
v 1 3 1.5
v 1 3 0.5
v 2 1 0.5
v 2 1 -0.5
v 2 3 1.5
v 2 3 0.5
v 2 3 -0.5
v 2 4 -0.5
v 2 4 -1.5
v 2 6 1.5
v 2 6 0.5
v 2 6 -0.5
v 2 6 -1.5
v 3 3 0.5
v 3 3 -0.5
v 3 6 0.5
v 3 6 -0.5
v 5 4 0.5
v 5 4 -0.5
v 5 5 0.5
v 5 5 -0.5
v 9 5 0.5
v 9 5 -0.5
v 9 6 0.5
v 9 6 -0.5
v 10 2 0.5
v 10 2 -0.5
v 10 5 0.5
v 10 5 -0.5
v 10 9 0.5
v 10 9 -0.5
v 10 10 0.5
v 10 10 -0.5
v 11 6 1.5
v 11 6 0.5
v 11 6 -0.5
v 11 6 -1.5
v 11 8 0.5
v 11 8 -0.5
v 11 9 1.5
v 11 9 -1.5
v 18 4 0.5
v 18 4 -0.5
v 18 8 0.5
v 18 8 -0.5
v -8 6 1.5
v -8 8 1.5
v -7 7 1.5
v -7 8 1.5
v -5 7 1.5
v -5 8 1.5
v -4 7 1.5
v -4 8 1.5
v -3 7 1.5
v -3 8 1.5
v -3 9 1.5
v -1 6 1.5
v -1 8 1.5
v 0 2 1.5
v 0 3 1.5
v 1 2 1.5
v 1 3 1.5
v 1 6 1.5
v 2 3 1.5
v 2 6 1.5
v 11 6 1.5
v 11 9 1.5
v -18 6 0.5
v -18 7 0.5
v -17 7 0.5
v -17 8 0.5
v -16 7 0.5
v -16 8 0.5
v -11 7 0.5
v -11 8 0.5
v -10 7 0.5
v -10 8 0.5
v -10 9 0.5
v -8 6 0.5
v -8 7 0.5
v -8 8 0.5
v -8 9 0.5
v -7 8 0.5
v -5 8 0.5
v -4 8 0.5
v -3 8 0.5
v -3 9 0.5
v -3 10 0.5
v -2 0 0.5
v -2 1 0.5
v -1 1 0.5
v -1 3 0.5
v 0 2 0.5
v 0 3 0.5
v 0 6 0.5
v 1 0 0.5
v 1 1 0.5
v 1 2 0.5
v 1 3 0.5
v 1 6 0.5
v 2 1 0.5
v 2 3 0.5
v 2 6 0.5
v 3 3 0.5
v 3 6 0.5
v 4 4 0.5
v 4 5 0.5
v 5 4 0.5
v 5 5 0.5
v 5 6 0.5
v 6 5 0.5
v 6 6 0.5
v 7 3 0.5
v 7 5 0.5
v 8 2 0.5
v 8 3 0.5
v 9 5 0.5
v 9 6 0.5
v 10 2 0.5
v 10 5 0.5
v 10 9 0.5
v 10 10 0.5
v 11 6 0.5
v 11 8 0.5
v 12 5 0.5
v 12 6 0.5
v 14 4 0.5
v 14 5 0.5
v 18 4 0.5
v 18 8 0.5
v -18 6 -0.5
v -18 7 -0.5
v -17 7 -0.5
v -17 8 -0.5
v -16 7 -0.5
v -16 8 -0.5
v -11 7 -0.5
v -11 8 -0.5
v -10 7 -0.5
v -10 8 -0.5
v -10 9 -0.5
v -8 6 -0.5
v -8 7 -0.5
v -8 8 -0.5
v -8 9 -0.5
v -3 8 -0.5
v -3 9 -0.5
v -3 10 -0.5
v -2 0 -0.5
v -2 1 -0.5
v -1 1 -0.5
v -1 3 -0.5
v 0 3 -0.5
v 0 6 -0.5
v 1 0 -0.5
v 1 1 -0.5
v 1 4 -0.5
v 1 6 -0.5
v 2 1 -0.5
v 2 3 -0.5
v 2 4 -0.5
v 2 6 -0.5
v 3 3 -0.5
v 3 6 -0.5
v 4 4 -0.5
v 4 5 -0.5
v 5 4 -0.5
v 5 5 -0.5
v 5 6 -0.5
v 6 5 -0.5
v 6 6 -0.5
v 7 3 -0.5
v 7 5 -0.5
v 8 2 -0.5
v 8 3 -0.5
v 9 5 -0.5
v 9 6 -0.5
v 10 2 -0.5
v 10 5 -0.5
v 10 9 -0.5
v 10 10 -0.5
v 11 6 -0.5
v 11 8 -0.5
v 12 5 -0.5
v 12 6 -0.5
v 14 4 -0.5
v 14 5 -0.5
v 18 4 -0.5
v 18 8 -0.5
v -8 6 -1.5
v -8 8 -1.5
v -3 8 -1.5
v -3 9 -1.5
v -1 6 -1.5
v -1 8 -1.5
v 1 4 -1.5
v 1 6 -1.5
v 2 4 -1.5
v 2 6 -1.5
v 11 6 -1.5
v 11 9 -1.5
v -2 0 0.5
v 1 0 0.5
v -2 0 -0.5
v 1 0 -0.5
v 1 1 0.5
v 2 1 0.5
v 1 1 -0.5
v 2 1 -0.5
v 0 2 1.5
v 1 2 1.5
v 0 2 0.5
v 1 2 0.5
v 8 2 0.5
v 10 2 0.5
v 8 2 -0.5
v 10 2 -0.5
v 1 3 1.5
v 2 3 1.5
v 1 3 0.5
v 2 3 0.5
v 3 3 0.5
v 7 3 0.5
v 8 3 0.5
v 2 3 -0.5
v 3 3 -0.5
v 7 3 -0.5
v 8 3 -0.5
v 4 4 0.5
v 5 4 0.5
v 14 4 0.5
v 18 4 0.5
v 1 4 -0.5
v 2 4 -0.5
v 4 4 -0.5
v 5 4 -0.5
v 14 4 -0.5
v 18 4 -0.5
v 1 4 -1.5
v 2 4 -1.5
v 5 5 0.5
v 6 5 0.5
v 7 5 0.5
v 12 5 0.5
v 14 5 0.5
v 5 5 -0.5
v 6 5 -0.5
v 7 5 -0.5
v 12 5 -0.5
v 14 5 -0.5
v -8 6 1.5
v -1 6 1.5
v 1 6 1.5
v 2 6 1.5
v 11 6 1.5
v -18 6 0.5
v -8 6 0.5
v -3 6 0.5
v -1 6 0.5
v 0 6 0.5
v 1 6 0.5
v 2 6 0.5
v 3 6 0.5
v 5 6 0.5
v 6 6 0.5
v 9 6 0.5
v 11 6 0.5
v 12 6 0.5
v -18 6 -0.5
v -8 6 -0.5
v -3 6 -0.5
v -1 6 -0.5
v 0 6 -0.5
v 1 6 -0.5
v 2 6 -0.5
v 3 6 -0.5
v 5 6 -0.5
v 6 6 -0.5
v 9 6 -0.5
v 11 6 -0.5
v 12 6 -0.5
v -8 6 -1.5
v -1 6 -1.5
v 1 6 -1.5
v 2 6 -1.5
v 11 6 -1.5
v -10 8 0.5
v -8 8 0.5
v -10 8 -0.5
v -8 8 -0.5
v -2 1 0.5
v -1 1 0.5
v -2 1 -0.5
v -1 1 -0.5
v 0 3 1.5
v 1 3 1.5
v -1 3 0.5
v 0 3 0.5
v 1 3 0.5
v -1 3 -0.5
v 0 3 -0.5
v 4 5 0.5
v 5 5 0.5
v 9 5 0.5
v 10 5 0.5
v 4 5 -0.5
v 5 5 -0.5
v 9 5 -0.5
v 10 5 -0.5
v -18 7 0.5
v -17 7 0.5
v -16 7 0.5
v -11 7 0.5
v -10 7 0.5
v -8 7 0.5
v -18 7 -0.5
v -17 7 -0.5
v -16 7 -0.5
v -11 7 -0.5
v -10 7 -0.5
v -8 7 -0.5
v -8 8 1.5
v -7 8 1.5
v -5 8 1.5
v -4 8 1.5
v -3 8 1.5
v -17 8 0.5
v -16 8 0.5
v -11 8 0.5
v -10 8 0.5
v -8 8 0.5
v -7 8 0.5
v -5 8 0.5
v -4 8 0.5
v -3 8 0.5
v 11 8 0.5
v 18 8 0.5
v -17 8 -0.5
v -16 8 -0.5
v -11 8 -0.5
v -10 8 -0.5
v -8 8 -0.5
v -3 8 -0.5
v 11 8 -0.5
v 18 8 -0.5
v -8 8 -1.5
v -3 8 -1.5
v -3 9 1.5
v 11 9 1.5
v -10 9 0.5
v -8 9 0.5
v -3 9 0.5
v 10 9 0.5
v -10 9 -0.5
v -8 9 -0.5
v -3 9 -0.5
v 10 9 -0.5
v -3 9 -1.5
v 11 9 -1.5
v -3 10 0.5
v 10 10 0.5
v -3 10 -0.5
v 10 10 -0.5

# faces
f 3/1/1 2/1/1 1/1/1
f 4/1/1 2/1/1 3/1/1
f 7/1/1 6/1/1 5/1/1
f 8/1/1 6/1/1 7/1/1
f 11/1/1 10/1/1 9/1/1
f 12/1/1 10/1/1 11/1/1
f 15/1/1 14/1/1 13/1/1
f 16/1/1 14/1/1 15/1/1
f 21/2/1 18/2/1 17/2/1
f 22/2/1 20/2/1 19/2/1
f 23/2/1 21/2/1 17/2/1
f 23/2/1 22/2/1 21/2/1
f 24/2/1 22/2/1 23/2/1
f 25/2/1 20/2/1 22/2/1
f 25/2/1 22/2/1 24/2/1
f 26/2/1 20/2/1 25/2/1
f 31/1/1 28/1/1 27/1/1
f 32/1/1 28/1/1 31/1/1
f 33/1/1 30/1/1 29/1/1
f 34/1/1 30/1/1 33/1/1
f 35/1/1 33/1/1 32/1/1
f 36/1/1 33/1/1 35/1/1
f 39/1/1 38/1/1 37/1/1
f 40/1/1 38/1/1 39/1/1
f 43/1/1 42/1/1 41/1/1
f 44/1/1 42/1/1 43/1/1
f 47/1/1 46/1/1 45/1/1
f 48/1/1 46/1/1 47/1/1
f 50/1/1 49/1/1 48/1/1
f 51/1/1 49/1/1 50/1/1
f 56/1/1 53/1/1 52/1/1
f 57/1/1 53/1/1 56/1/1
f 58/1/1 55/1/1 54/1/1
f 59/1/1 55/1/1 58/1/1
f 62/1/1 61/1/1 60/1/1
f 63/1/1 61/1/1 62/1/1
f 66/1/1 65/1/1 64/1/1
f 67/1/1 65/1/1 66/1/1
f 70/2/1 69/2/1 68/2/1
f 71/2/1 69/2/1 70/2/1
f 74/2/1 73/2/1 72/2/1
f 75/2/1 73/2/1 74/2/1
f 78/2/1 77/2/1 76/2/1
f 79/2/1 77/2/1 78/2/1
f 82/2/1 81/2/1 80/2/1
f 83/2/1 81/2/1 82/2/1
f 84/1/2 85/1/2 86/1/2
f 86/1/2 85/1/2 87/1/2
f 88/1/2 89/1/2 90/1/2
f 90/1/2 89/1/2 91/1/2
f 92/1/2 93/1/2 94/1/2
f 94/1/2 93/1/2 95/1/2
f 96/1/2 97/1/2 98/1/2
f 98/1/2 97/1/2 99/1/2
f 100/1/2 101/1/2 103/1/2
f 103/1/2 101/1/2 104/1/2
f 102/1/2 103/1/2 107/1/2
f 107/1/2 103/1/2 108/1/2
f 105/1/2 106/1/2 109/1/2
f 109/1/2 106/1/2 110/1/2
f 111/1/2 112/1/2 113/1/2
f 113/1/2 112/1/2 114/1/2
f 115/1/2 116/1/2 117/1/2
f 117/1/2 116/1/2 118/1/2
f 119/2/2 120/2/2 121/2/2
f 121/2/2 120/2/2 122/2/2
f 123/2/2 124/2/2 125/2/2
f 125/2/2 124/2/2 126/2/2
f 127/1/2 128/1/2 129/1/2
f 129/1/2 128/1/2 130/1/2
f 131/1/2 132/1/2 135/1/2
f 133/1/2 134/1/2 136/1/2
f 131/1/2 135/1/2 137/1/2
f 135/1/2 136/1/2 137/1/2
f 136/1/2 134/1/2 138/1/2
f 137/1/2 136/1/2 138/1/2
f 139/2/2 140/2/2 141/2/2
f 141/2/2 140/2/2 142/2/2
f 145/2/3 144/2/3 143/2/3
f 146/2/3 144/2/3 145/2/3
f 147/2/3 145/2/3 143/2/3
f 147/1/3 146/1/3 145/1/3
f 148/1/3 146/1/3 147/1/3
f 149/2/3 147/2/3 143/2/3
f 149/2/3 148/2/3 147/2/3
f 150/2/3 148/2/3 149/2/3
f 151/2/3 149/2/3 143/2/3
f 151/1/3 150/1/3 149/1/3
f 152/1/3 150/1/3 151/1/3
f 154/2/3 152/2/3 151/2/3
f 154/2/3 151/2/3 143/2/3
f 155/1/3 153/1/3 152/1/3
f 155/2/3 152/2/3 154/2/3
f 158/1/3 157/1/3 156/1/3
f 159/1/3 157/1/3 158/1/3
f 160/1/3 155/1/3 154/1/3
f 161/1/3 160/1/3 159/1/3
f 162/1/3 155/1/3 160/1/3
f 162/1/3 160/1/3 161/1/3
f 163/1/3 155/1/3 162/1/3
f 164/1/3 153/1/3 155/1/3
f 164/1/3 155/1/3 163/1/3
f 167/1/3 166/1/3 165/1/3
f 169/1/3 167/1/3 165/1/3
f 169/1/3 168/1/3 167/1/3
f 170/1/3 168/1/3 169/1/3
f 171/1/3 169/1/3 165/1/3
f 173/1/3 171/1/3 165/1/3
f 173/1/3 172/1/3 171/1/3
f 174/1/3 172/1/3 173/1/3
f 176/1/3 173/1/3 165/1/3
f 177/1/3 173/1/3 176/1/3
f 178/1/3 175/1/3 174/1/3
f 179/1/3 175/1/3 178/1/3
f 180/2/3 179/2/3 178/2/3
f 181/2/3 179/2/3 180/2/3
f 182/2/3 179/2/3 181/2/3
f 183/2/3 179/2/3 182/2/3
f 184/2/3 179/2/3 183/2/3
f 188/1/3 187/1/3 186/1/3
f 190/1/3 189/1/3 188/1/3
f 191/1/3 189/1/3 190/1/3
f 193/1/3 188/1/3 186/1/3
f 193/1/3 190/1/3 188/1/3
f 194/1/3 190/1/3 193/1/3
f 195/1/3 190/1/3 194/1/3
f 196/1/3 192/1/3 191/1/3
f 197/1/3 192/1/3 196/1/3
f 198/1/3 195/1/3 194/1/3
f 198/1/3 196/1/3 195/1/3
f 199/1/3 196/1/3 198/1/3
f 201/1/3 200/1/3 199/1/3
f 202/1/3 200/1/3 201/1/3
f 205/1/3 204/1/3 203/1/3
f 206/1/3 204/1/3 205/1/3
f 208/1/3 207/1/3 206/1/3
f 209/1/3 207/1/3 208/1/3
f 211/2/3 209/2/3 208/2/3
f 213/2/3 211/2/3 210/2/3
f 214/2/3 209/2/3 211/2/3
f 214/2/3 213/2/3 212/2/3
f 214/2/3 211/2/3 213/2/3
f 215/2/3 209/2/3 214/2/3
f 216/2/3 214/2/3 212/2/3
f 217/2/3 214/2/3 216/2/3
f 218/1/3 185/1/3 184/1/3
f 219/1/3 185/1/3 218/1/3
f 223/2/3 221/2/3 220/2/3
f 225/2/3 223/2/3 222/2/3
f 226/2/3 225/2/3 224/2/3
f 227/2/3 221/2/3 223/2/3
f 227/2/3 225/2/3 226/2/3
f 227/2/3 223/2/3 225/2/3
f 228/1/4 229/1/4 230/1/4
f 228/1/4 230/1/4 232/1/4
f 230/1/4 231/1/4 232/1/4
f 232/1/4 231/1/4 233/1/4
f 228/1/4 232/1/4 234/1/4
f 228/1/4 234/1/4 236/1/4
f 234/1/4 235/1/4 236/1/4
f 236/1/4 235/1/4 237/1/4
f 228/1/4 236/1/4 239/1/4
f 239/1/4 236/1/4 240/1/4
f 237/1/4 238/1/4 241/1/4
f 241/1/4 238/1/4 242/1/4
f 241/2/4 242/2/4 243/2/4
f 243/2/4 242/2/4 244/2/4
f 246/1/4 247/1/4 248/1/4
f 248/1/4 249/1/4 250/1/4
f 246/1/4 248/1/4 252/1/4
f 250/1/4 251/1/4 252/1/4
f 248/1/4 250/1/4 252/1/4
f 252/1/4 251/1/4 253/1/4
f 253/1/4 251/1/4 254/1/4
f 254/1/4 251/1/4 255/1/4
f 253/1/4 254/1/4 256/1/4
f 256/1/4 254/1/4 257/1/4
f 257/1/4 254/1/4 258/1/4
f 258/1/4 259/1/4 260/1/4
f 257/1/4 258/1/4 260/1/4
f 260/1/4 259/1/4 261/1/4
f 262/1/4 263/1/4 264/1/4
f 264/1/4 263/1/4 265/1/4
f 265/1/4 266/1/4 267/1/4
f 267/1/4 266/1/4 268/1/4
f 267/2/4 268/2/4 270/2/4
f 269/2/4 270/2/4 272/2/4
f 270/2/4 268/2/4 273/2/4
f 271/2/4 272/2/4 273/2/4
f 272/2/4 270/2/4 273/2/4
f 273/2/4 268/2/4 274/2/4
f 271/2/4 273/2/4 275/2/4
f 275/2/4 273/2/4 276/2/4
f 244/1/4 245/1/4 277/1/4
f 277/1/4 245/1/4 278/1/4
f 279/2/4 280/2/4 282/2/4
f 281/2/4 282/2/4 284/2/4
f 283/2/4 284/2/4 285/2/4
f 282/2/4 280/2/4 286/2/4
f 285/2/4 284/2/4 286/2/4
f 284/2/4 282/2/4 286/2/4
f 287/2/4 288/2/4 289/2/4
f 287/2/4 289/2/4 291/2/4
f 289/1/4 290/1/4 292/1/4
f 291/2/4 289/2/4 292/2/4
f 291/1/4 292/1/4 294/1/4
f 293/1/4 294/1/4 295/1/4
f 294/1/4 292/1/4 296/1/4
f 295/1/4 294/1/4 296/1/4
f 296/1/4 292/1/4 297/1/4
f 292/1/4 290/1/4 298/1/4
f 297/1/4 292/1/4 298/1/4
f 301/1/5 300/1/5 299/1/5
f 302/1/5 300/1/5 301/1/5
f 305/1/5 304/1/5 303/1/5
f 306/1/5 304/1/5 305/1/5
f 309/1/5 308/1/5 307/1/5
f 310/1/5 308/1/5 309/1/5
f 313/2/5 312/2/5 311/2/5
f 314/2/5 312/2/5 313/2/5
f 317/1/5 316/1/5 315/1/5
f 318/1/5 316/1/5 317/1/5
f 322/1/5 319/1/5 318/1/5
f 323/1/5 319/1/5 322/1/5
f 324/2/5 321/2/5 320/2/5
f 325/2/5 321/2/5 324/2/5
f 332/1/5 327/1/5 326/1/5
f 333/1/5 327/1/5 332/1/5
f 334/2/5 329/2/5 328/2/5
f 335/2/5 329/2/5 334/2/5
f 336/1/5 331/1/5 330/1/5
f 337/1/5 331/1/5 336/1/5
f 343/1/5 339/1/5 338/1/5
f 344/2/5 340/2/5 339/2/5
f 344/1/5 339/1/5 343/1/5
f 345/2/5 340/2/5 344/2/5
f 346/2/5 342/2/5 341/2/5
f 347/2/5 342/2/5 346/2/5
f 354/2/5 349/2/5 348/2/5
f 355/2/5 349/2/5 354/2/5
f 356/1/5 350/1/5 349/1/5
f 356/2/5 349/2/5 355/2/5
f 357/1/5 350/1/5 356/1/5
f 358/1/5 350/1/5 357/1/5
f 359/1/5 352/1/5 351/1/5
f 360/1/5 352/1/5 359/1/5
f 361/1/5 352/1/5 360/1/5
f 362/1/5 352/1/5 361/1/5
f 363/1/5 352/1/5 362/1/5
f 364/1/5 352/1/5 363/1/5
f 366/1/5 354/1/5 353/1/5
f 367/2/5 355/2/5 354/2/5
f 367/1/5 354/1/5 366/1/5
f 368/1/5 356/1/5 355/1/5
f 368/2/5 355/2/5 367/2/5
f 368/1/5 357/1/5 356/1/5
f 369/1/5 357/1/5 368/1/5
f 370/1/5 357/1/5 369/1/5
f 373/1/5 361/1/5 360/1/5
f 374/1/5 361/1/5 373/1/5
f 376/1/5 364/1/5 363/1/5
f 377/2/5 365/2/5 364/2/5
f 377/1/5 364/1/5 376/1/5
f 378/2/5 365/2/5 377/2/5
f 379/2/5 368/2/5 367/2/5
f 379/2/5 369/2/5 368/2/5
f 380/1/5 371/1/5 370/1/5
f 380/2/5 369/2/5 379/2/5
f 380/1/5 370/1/5 369/1/5
f 381/1/5 371/1/5 380/1/5
f 382/1/5 376/1/5 375/1/5
f 382/1/5 375/1/5 374/1/5
f 382/1/5 377/1/5 376/1/5
f 382/1/5 373/1/5 372/1/5
f 382/1/5 374/1/5 373/1/5
f 383/1/5 377/1/5 382/1/5
f 386/1/5 385/1/5 384/1/5
f 387/1/5 385/1/5 386/1/5
f 388/1/6 389/1/6 390/1/6
f 390/1/6 389/1/6 391/1/6
f 392/1/6 393/1/6 395/1/6
f 395/1/6 393/1/6 396/1/6
f 394/1/6 395/1/6 397/1/6
f 397/1/6 395/1/6 398/1/6
f 399/1/6 400/1/6 403/1/6
f 403/1/6 400/1/6 404/1/6
f 401/2/6 402/2/6 405/2/6
f 405/2/6 402/2/6 406/2/6
f 407/1/6 408/1/6 413/1/6
f 413/1/6 408/1/6 414/1/6
f 409/1/6 410/1/6 415/1/6
f 415/1/6 410/1/6 416/1/6
f 411/1/6 412/1/6 417/1/6
f 417/1/6 412/1/6 418/1/6
f 419/2/6 420/2/6 428/2/6
f 420/1/6 421/1/6 429/1/6
f 428/2/6 420/2/6 429/2/6
f 421/2/6 422/2/6 430/2/6
f 429/1/6 421/1/6 430/1/6
f 422/1/6 423/1/6 431/1/6
f 430/2/6 422/2/6 431/2/6
f 431/1/6 423/1/6 432/1/6
f 424/1/6 425/1/6 435/1/6
f 435/1/6 425/1/6 436/1/6
f 426/1/6 427/1/6 437/1/6
f 437/1/6 427/1/6 438/1/6
f 433/2/6 434/2/6 441/2/6
f 441/2/6 434/2/6 442/2/6
f 439/2/6 440/2/6 443/2/6
f 443/2/6 440/2/6 444/2/6
f 445/1/6 446/1/6 449/1/6
f 449/1/6 446/1/6 450/1/6
f 447/1/6 448/1/6 451/1/6
f 448/2/6 449/2/6 452/2/6
f 451/1/6 448/1/6 452/1/6
f 452/2/6 449/2/6 453/2/6
f 450/1/6 446/1/6 454/1/6
f 453/1/6 454/1/6 455/1/6
f 454/1/6 446/1/6 456/1/6
f 455/1/6 454/1/6 456/1/6
f 457/1/6 458/1/6 459/1/6
f 459/1/6 458/1/6 460/1/6
