# MagicaVoxel @ Ephtracy

# group
g AK47Turret

# material
mtllib AK47Turret.mtl
usemtl palette

# normals
vn -1 0 0
vn 1 0 0
vn 0 0 1
vn 0 0 -1
vn 0 -1 0
vn 0 1 0

# texcoords
vt 0.845703 0.5
vt 0.970703 0.5

# verts
v -18 2 0.5
v -18 2 -0.5
v -18 3 0.5
v -18 3 -0.5
v -17 3 0.5
v -17 3 -0.5
v -17 4 0.5
v -17 4 -0.5
v -11 3 0.5
v -11 3 -0.5
v -11 4 0.5
v -11 4 -0.5
v -10 4 0.5
v -10 4 -0.5
v -10 5 0.5
v -10 5 -0.5
v -8 2 1.5
v -8 2 0.5
v -8 2 -0.5
v -8 2 -1.5
v -8 3 0.5
v -8 3 -0.5
v -8 4 1.5
v -8 4 0.5
v -8 4 -0.5
v -8 4 -1.5
v -3 4 1.5
v -3 4 0.5
v -3 4 -0.5
v -3 4 -1.5
v -3 5 1.5
v -3 5 0.5
v -3 5 -0.5
v -3 5 -1.5
v -3 6 0.5
v -3 6 -0.5
v 4 2 1.5
v 4 2 0.5
v 4 2 -0.5
v 4 2 -1.5
v 4 3 1.5
v 4 3 0.5
v 4 3 -0.5
v 4 3 -1.5
v 12 1 0.5
v 12 1 -0.5
v 12 2 0.5
v 12 2 -0.5
v 14 0 0.5
v 14 0 -0.5
v 14 1 0.5
v 14 1 -0.5
v -16 3 0.5
v -16 3 -0.5
v -16 4 0.5
v -16 4 -0.5
v -10 3 0.5
v -10 3 -0.5
v -10 4 0.5
v -10 4 -0.5
v 1 2 1.5
v 1 2 0.5
v 1 2 -0.5
v 1 2 -1.5
v 1 3 1.5
v 1 3 0.5
v 1 3 -0.5
v 1 3 -1.5
v 10 5 0.5
v 10 5 -0.5
v 10 6 0.5
v 10 6 -0.5
v 11 2 1.5
v 11 2 0.5
v 11 2 -0.5
v 11 2 -1.5
v 11 4 0.5
v 11 4 -0.5
v 11 5 1.5
v 11 5 -1.5
v 18 0 0.5
v 18 0 -0.5
v 18 4 0.5
v 18 4 -0.5
v -8 2 1.5
v -8 4 1.5
v -7 3 1.5
v -7 4 1.5
v -5 3 1.5
v -5 4 1.5
v -4 3 1.5
v -4 4 1.5
v -3 3 1.5
v -3 4 1.5
v -3 5 1.5
v -1 2 1.5
v -1 4 1.5
v 1 2 1.5
v 1 3 1.5
v 4 2 1.5
v 4 3 1.5
v 11 2 1.5
v 11 5 1.5
v -18 2 0.5
v -18 3 0.5
v -17 3 0.5
v -17 4 0.5
v -16 3 0.5
v -16 4 0.5
v -11 3 0.5
v -11 4 0.5
v -10 3 0.5
v -10 4 0.5
v -10 5 0.5
v -8 2 0.5
v -8 3 0.5
v -8 4 0.5
v -8 5 0.5
v -7 4 0.5
v -5 4 0.5
v -4 4 0.5
v -3 4 0.5
v -3 5 0.5
v -3 6 0.5
v 1 2 0.5
v 1 3 0.5
v 4 2 0.5
v 4 3 0.5
v 10 5 0.5
v 10 6 0.5
v 11 2 0.5
v 11 4 0.5
v 12 1 0.5
v 12 2 0.5
v 14 0 0.5
v 14 1 0.5
v 18 0 0.5
v 18 4 0.5
v -18 2 -0.5
v -18 3 -0.5
v -17 3 -0.5
v -17 4 -0.5
v -16 3 -0.5
v -16 4 -0.5
v -11 3 -0.5
v -11 4 -0.5
v -10 3 -0.5
v -10 4 -0.5
v -10 5 -0.5
v -8 2 -0.5
v -8 3 -0.5
v -8 4 -0.5
v -8 5 -0.5
v -3 4 -0.5
v -3 5 -0.5
v -3 6 -0.5
v 1 2 -0.5
v 1 3 -0.5
v 4 2 -0.5
v 4 3 -0.5
v 10 5 -0.5
v 10 6 -0.5
v 11 2 -0.5
v 11 4 -0.5
v 12 1 -0.5
v 12 2 -0.5
v 14 0 -0.5
v 14 1 -0.5
v 18 0 -0.5
v 18 4 -0.5
v -8 2 -1.5
v -8 4 -1.5
v -3 4 -1.5
v -3 5 -1.5
v -1 2 -1.5
v -1 4 -1.5
v 1 2 -1.5
v 1 3 -1.5
v 4 2 -1.5
v 4 3 -1.5
v 11 2 -1.5
v 11 5 -1.5
v 14 0 0.5
v 18 0 0.5
v 14 0 -0.5
v 18 0 -0.5
v 12 1 0.5
v 14 1 0.5
v 12 1 -0.5
v 14 1 -0.5
v -8 2 1.5
v -1 2 1.5
v 1 2 1.5
v 4 2 1.5
v 11 2 1.5
v -18 2 0.5
v -8 2 0.5
v -3 2 0.5
v -1 2 0.5
v 1 2 0.5
v 4 2 0.5
v 11 2 0.5
v 12 2 0.5
v -18 2 -0.5
v -8 2 -0.5
v -3 2 -0.5
v -1 2 -0.5
v 1 2 -0.5
v 4 2 -0.5
v 11 2 -0.5
v 12 2 -0.5
v -8 2 -1.5
v -1 2 -1.5
v 1 2 -1.5
v 4 2 -1.5
v 11 2 -1.5
v 1 3 1.5
v 4 3 1.5
v 1 3 0.5
v 4 3 0.5
v 1 3 -0.5
v 4 3 -0.5
v 1 3 -1.5
v 4 3 -1.5
v -10 4 0.5
v -8 4 0.5
v -10 4 -0.5
v -8 4 -0.5
v -18 3 0.5
v -17 3 0.5
v -16 3 0.5
v -11 3 0.5
v -10 3 0.5
v -8 3 0.5
v -18 3 -0.5
v -17 3 -0.5
v -16 3 -0.5
v -11 3 -0.5
v -10 3 -0.5
v -8 3 -0.5
v -8 4 1.5
v -7 4 1.5
v -5 4 1.5
v -4 4 1.5
v -3 4 1.5
v -17 4 0.5
v -16 4 0.5
v -11 4 0.5
v -10 4 0.5
v -8 4 0.5
v -7 4 0.5
v -5 4 0.5
v -4 4 0.5
v -3 4 0.5
v 11 4 0.5
v 18 4 0.5
v -17 4 -0.5
v -16 4 -0.5
v -11 4 -0.5
v -10 4 -0.5
v -8 4 -0.5
v -3 4 -0.5
v 11 4 -0.5
v 18 4 -0.5
v -8 4 -1.5
v -3 4 -1.5
v -3 5 1.5
v 11 5 1.5
v -10 5 0.5
v -8 5 0.5
v -3 5 0.5
v 10 5 0.5
v -10 5 -0.5
v -8 5 -0.5
v -3 5 -0.5
v 10 5 -0.5
v -3 5 -1.5
v 11 5 -1.5
v -3 6 0.5
v 10 6 0.5
v -3 6 -0.5
v 10 6 -0.5

# faces
f 3/1/1 2/1/1 1/1/1
f 4/1/1 2/1/1 3/1/1
f 7/1/1 6/1/1 5/1/1
f 8/1/1 6/1/1 7/1/1
f 11/1/1 10/1/1 9/1/1
f 12/1/1 10/1/1 11/1/1
f 15/1/1 14/1/1 13/1/1
f 16/1/1 14/1/1 15/1/1
f 21/2/1 18/2/1 17/2/1
f 22/2/1 20/2/1 19/2/1
f 23/2/1 21/2/1 17/2/1
f 23/2/1 22/2/1 21/2/1
f 24/2/1 22/2/1 23/2/1
f 25/2/1 20/2/1 22/2/1
f 25/2/1 22/2/1 24/2/1
f 26/2/1 20/2/1 25/2/1
f 31/1/1 28/1/1 27/1/1
f 32/1/1 28/1/1 31/1/1
f 33/1/1 30/1/1 29/1/1
f 34/1/1 30/1/1 33/1/1
f 35/1/1 33/1/1 32/1/1
f 36/1/1 33/1/1 35/1/1
f 41/1/1 38/1/1 37/1/1
f 42/1/1 38/1/1 41/1/1
f 43/1/1 40/1/1 39/1/1
f 44/1/1 40/1/1 43/1/1
f 47/2/1 46/2/1 45/2/1
f 48/2/1 46/2/1 47/2/1
f 51/2/1 50/2/1 49/2/1
f 52/2/1 50/2/1 51/2/1
f 53/1/2 54/1/2 55/1/2
f 55/1/2 54/1/2 56/1/2
f 57/1/2 58/1/2 59/1/2
f 59/1/2 58/1/2 60/1/2
f 61/1/2 62/1/2 65/1/2
f 65/1/2 62/1/2 66/1/2
f 63/1/2 64/1/2 67/1/2
f 67/1/2 64/1/2 68/1/2
f 69/1/2 70/1/2 71/1/2
f 71/1/2 70/1/2 72/1/2
f 73/1/2 74/1/2 77/1/2
f 75/1/2 76/1/2 78/1/2
f 73/1/2 77/1/2 79/1/2
f 77/1/2 78/1/2 79/1/2
f 78/1/2 76/1/2 80/1/2
f 79/1/2 78/1/2 80/1/2
f 81/2/2 82/2/2 83/2/2
f 83/2/2 82/2/2 84/2/2
f 87/2/3 86/2/3 85/2/3
f 88/2/3 86/2/3 87/2/3
f 89/2/3 87/2/3 85/2/3
f 89/1/3 88/1/3 87/1/3
f 90/1/3 88/1/3 89/1/3
f 91/2/3 89/2/3 85/2/3
f 91/2/3 90/2/3 89/2/3
f 92/2/3 90/2/3 91/2/3
f 93/2/3 91/2/3 85/2/3
f 93/1/3 92/1/3 91/1/3
f 94/1/3 92/1/3 93/1/3
f 96/2/3 94/2/3 93/2/3
f 96/2/3 93/2/3 85/2/3
f 97/1/3 95/1/3 94/1/3
f 97/2/3 94/2/3 96/2/3
f 98/1/3 97/1/3 96/1/3
f 99/1/3 97/1/3 98/1/3
f 101/1/3 97/1/3 99/1/3
f 102/1/3 101/1/3 100/1/3
f 103/1/3 95/1/3 97/1/3
f 103/1/3 101/1/3 102/1/3
f 103/1/3 97/1/3 101/1/3
f 106/1/3 105/1/3 104/1/3
f 108/1/3 106/1/3 104/1/3
f 108/1/3 107/1/3 106/1/3
f 109/1/3 107/1/3 108/1/3
f 110/1/3 108/1/3 104/1/3
f 112/1/3 110/1/3 104/1/3
f 112/1/3 111/1/3 110/1/3
f 113/1/3 111/1/3 112/1/3
f 115/1/3 112/1/3 104/1/3
f 116/1/3 112/1/3 115/1/3
f 117/1/3 114/1/3 113/1/3
f 118/1/3 114/1/3 117/1/3
f 119/2/3 118/2/3 117/2/3
f 120/2/3 118/2/3 119/2/3
f 121/2/3 118/2/3 120/2/3
f 122/2/3 118/2/3 121/2/3
f 123/2/3 118/2/3 122/2/3
f 127/1/3 126/1/3 125/1/3
f 128/1/3 126/1/3 127/1/3
f 129/1/3 124/1/3 123/1/3
f 130/1/3 124/1/3 129/1/3
f 134/2/3 132/2/3 131/2/3
f 136/2/3 134/2/3 133/2/3
f 137/2/3 136/2/3 135/2/3
f 138/2/3 132/2/3 134/2/3
f 138/2/3 136/2/3 137/2/3
f 138/2/3 134/2/3 136/2/3
f 139/1/4 140/1/4 141/1/4
f 139/1/4 141/1/4 143/1/4
f 141/1/4 142/1/4 143/1/4
f 143/1/4 142/1/4 144/1/4
f 139/1/4 143/1/4 145/1/4
f 139/1/4 145/1/4 147/1/4
f 145/1/4 146/1/4 147/1/4
f 147/1/4 146/1/4 148/1/4
f 139/1/4 147/1/4 150/1/4
f 150/1/4 147/1/4 151/1/4
f 148/1/4 149/1/4 152/1/4
f 152/1/4 149/1/4 153/1/4
f 152/2/4 153/2/4 154/2/4
f 154/2/4 153/2/4 155/2/4
f 157/1/4 158/1/4 159/1/4
f 159/1/4 158/1/4 160/1/4
f 155/1/4 156/1/4 161/1/4
f 161/1/4 156/1/4 162/1/4
f 163/2/4 164/2/4 166/2/4
f 165/2/4 166/2/4 168/2/4
f 167/2/4 168/2/4 169/2/4
f 166/2/4 164/2/4 170/2/4
f 169/2/4 168/2/4 170/2/4
f 168/2/4 166/2/4 170/2/4
f 171/2/4 172/2/4 173/2/4
f 171/2/4 173/2/4 175/2/4
f 173/1/4 174/1/4 176/1/4
f 175/2/4 173/2/4 176/2/4
f 175/1/4 176/1/4 177/1/4
f 177/1/4 176/1/4 178/1/4
f 178/1/4 176/1/4 180/1/4
f 179/1/4 180/1/4 181/1/4
f 176/1/4 174/1/4 182/1/4
f 181/1/4 180/1/4 182/1/4
f 180/1/4 176/1/4 182/1/4
f 185/2/5 184/2/5 183/2/5
f 186/2/5 184/2/5 185/2/5
f 189/2/5 188/2/5 187/2/5
f 190/2/5 188/2/5 189/2/5
f 197/2/5 192/2/5 191/2/5
f 198/2/5 192/2/5 197/2/5
f 199/1/5 193/1/5 192/1/5
f 199/2/5 192/2/5 198/2/5
f 200/1/5 193/1/5 199/1/5
f 201/1/5 195/1/5 194/1/5
f 202/1/5 195/1/5 201/1/5
f 204/1/5 197/1/5 196/1/5
f 205/2/5 198/2/5 197/2/5
f 205/1/5 197/1/5 204/1/5
f 206/1/5 200/1/5 199/1/5
f 206/2/5 198/2/5 205/2/5
f 206/1/5 199/1/5 198/1/5
f 206/1/5 202/1/5 201/1/5
f 206/1/5 201/1/5 200/1/5
f 207/1/5 202/1/5 206/1/5
f 208/1/5 202/1/5 207/1/5
f 209/1/5 202/1/5 208/1/5
f 210/2/5 203/2/5 202/2/5
f 210/1/5 202/1/5 209/1/5
f 211/2/5 203/2/5 210/2/5
f 212/2/5 206/2/5 205/2/5
f 212/2/5 207/2/5 206/2/5
f 213/1/5 208/1/5 207/1/5
f 213/2/5 207/2/5 212/2/5
f 214/1/5 208/1/5 213/1/5
f 215/1/5 210/1/5 209/1/5
f 216/1/5 210/1/5 215/1/5
f 219/1/5 218/1/5 217/1/5
f 220/1/5 218/1/5 219/1/5
f 223/1/5 222/1/5 221/1/5
f 224/1/5 222/1/5 223/1/5
f 227/1/5 226/1/5 225/1/5
f 228/1/5 226/1/5 227/1/5
f 229/1/6 230/1/6 235/1/6
f 235/1/6 230/1/6 236/1/6
f 231/1/6 232/1/6 237/1/6
f 237/1/6 232/1/6 238/1/6
f 233/1/6 234/1/6 239/1/6
f 239/1/6 234/1/6 240/1/6
f 241/2/6 242/2/6 250/2/6
f 242/1/6 243/1/6 251/1/6
f 250/2/6 242/2/6 251/2/6
f 243/2/6 244/2/6 252/2/6
f 251/1/6 243/1/6 252/1/6
f 244/1/6 245/1/6 253/1/6
f 252/2/6 244/2/6 253/2/6
f 253/1/6 245/1/6 254/1/6
f 246/1/6 247/1/6 257/1/6
f 257/1/6 247/1/6 258/1/6
f 248/1/6 249/1/6 259/1/6
f 259/1/6 249/1/6 260/1/6
f 255/2/6 256/2/6 263/2/6
f 263/2/6 256/2/6 264/2/6
f 261/2/6 262/2/6 265/2/6
f 265/2/6 262/2/6 266/2/6
f 267/1/6 268/1/6 271/1/6
f 271/1/6 268/1/6 272/1/6
f 269/1/6 270/1/6 273/1/6
f 270/2/6 271/2/6 274/2/6
f 273/1/6 270/1/6 274/1/6
f 274/2/6 271/2/6 275/2/6
f 272/1/6 268/1/6 276/1/6
f 275/1/6 276/1/6 277/1/6
f 276/1/6 268/1/6 278/1/6
f 277/1/6 276/1/6 278/1/6
f 279/1/6 280/1/6 281/1/6
f 281/1/6 280/1/6 282/1/6
